<mxfile host="app.diagrams.net" modified="2024-05-22T21:30:32.974Z" agent="Mozilla/5.0 (Windows NT 10.0; Win64; x64) AppleWebKit/537.36 (KHTML, like Gecko) Chrome/125.0.0.0 Safari/537.36" etag="HJ8MnsXJ1Kpi_xNgK2BR" version="24.4.4" type="device">
  <diagram name="Page-1" id="IdT9yIpgEMQbbAZ77v8H">
    <mxGraphModel dx="-34" dy="1106" grid="1" gridSize="10" guides="1" tooltips="1" connect="1" arrows="1" fold="1" page="1" pageScale="1" pageWidth="827" pageHeight="1169" math="0" shadow="0">
      <root>
        <mxCell id="0" />
        <mxCell id="1" parent="0" />
        <mxCell id="NAWwyWHMbkKftdFxb2z5-24" value="" style="group" parent="1" vertex="1" connectable="0">
          <mxGeometry x="1380" y="650" width="400" height="80" as="geometry" />
        </mxCell>
        <mxCell id="NAWwyWHMbkKftdFxb2z5-1" value="&lt;font style=&quot;font-size: 24px;&quot;&gt;0&lt;/font&gt;" style="ellipse;whiteSpace=wrap;html=1;aspect=fixed;" parent="NAWwyWHMbkKftdFxb2z5-24" vertex="1">
          <mxGeometry x="80" width="80" height="80" as="geometry" />
        </mxCell>
        <mxCell id="NAWwyWHMbkKftdFxb2z5-2" value="&lt;font style=&quot;font-size: 24px;&quot;&gt;1&lt;/font&gt;" style="ellipse;whiteSpace=wrap;html=1;aspect=fixed;" parent="NAWwyWHMbkKftdFxb2z5-24" vertex="1">
          <mxGeometry x="240" width="80" height="80" as="geometry" />
        </mxCell>
        <mxCell id="NAWwyWHMbkKftdFxb2z5-6" value="" style="endArrow=classic;html=1;rounded=0;fontSize=24;entryX=0;entryY=0.5;entryDx=0;entryDy=0;" parent="NAWwyWHMbkKftdFxb2z5-24" target="NAWwyWHMbkKftdFxb2z5-1" edge="1">
          <mxGeometry relative="1" as="geometry">
            <mxPoint y="40" as="sourcePoint" />
            <mxPoint x="60" y="40" as="targetPoint" />
          </mxGeometry>
        </mxCell>
        <mxCell id="NAWwyWHMbkKftdFxb2z5-7" value="&lt;font style=&quot;font-size: 24px;&quot;&gt;λ&lt;/font&gt;" style="edgeLabel;resizable=0;html=1;;align=center;verticalAlign=middle;" parent="NAWwyWHMbkKftdFxb2z5-6" connectable="0" vertex="1">
          <mxGeometry relative="1" as="geometry" />
        </mxCell>
        <mxCell id="NAWwyWHMbkKftdFxb2z5-12" value="" style="endArrow=classic;html=1;rounded=0;fontSize=24;exitX=1;exitY=0.5;exitDx=0;exitDy=0;entryX=0;entryY=0.5;entryDx=0;entryDy=0;" parent="NAWwyWHMbkKftdFxb2z5-24" source="NAWwyWHMbkKftdFxb2z5-1" target="NAWwyWHMbkKftdFxb2z5-2" edge="1">
          <mxGeometry relative="1" as="geometry">
            <mxPoint x="170" y="39.71000000000001" as="sourcePoint" />
            <mxPoint x="260" y="40" as="targetPoint" />
          </mxGeometry>
        </mxCell>
        <mxCell id="NAWwyWHMbkKftdFxb2z5-13" value="&lt;font style=&quot;font-size: 24px;&quot;&gt;a&lt;/font&gt;" style="edgeLabel;resizable=0;html=1;;align=center;verticalAlign=middle;" parent="NAWwyWHMbkKftdFxb2z5-12" connectable="0" vertex="1">
          <mxGeometry relative="1" as="geometry" />
        </mxCell>
        <mxCell id="NAWwyWHMbkKftdFxb2z5-14" value="" style="endArrow=classic;html=1;rounded=0;fontSize=24;exitX=1;exitY=0.5;exitDx=0;exitDy=0;" parent="NAWwyWHMbkKftdFxb2z5-24" source="NAWwyWHMbkKftdFxb2z5-2" edge="1">
          <mxGeometry relative="1" as="geometry">
            <mxPoint x="10" y="50" as="sourcePoint" />
            <mxPoint x="400" y="40" as="targetPoint" />
          </mxGeometry>
        </mxCell>
        <mxCell id="NAWwyWHMbkKftdFxb2z5-15" value="&lt;font style=&quot;font-size: 24px;&quot;&gt;λ&lt;/font&gt;" style="edgeLabel;resizable=0;html=1;;align=center;verticalAlign=middle;" parent="NAWwyWHMbkKftdFxb2z5-14" connectable="0" vertex="1">
          <mxGeometry relative="1" as="geometry" />
        </mxCell>
        <mxCell id="NAWwyWHMbkKftdFxb2z5-25" value="" style="group" parent="1" vertex="1" connectable="0">
          <mxGeometry x="1380" y="810" width="400" height="80" as="geometry" />
        </mxCell>
        <mxCell id="NAWwyWHMbkKftdFxb2z5-16" value="&lt;font style=&quot;font-size: 24px;&quot;&gt;0&lt;/font&gt;" style="ellipse;whiteSpace=wrap;html=1;aspect=fixed;" parent="NAWwyWHMbkKftdFxb2z5-25" vertex="1">
          <mxGeometry x="80" width="80" height="80" as="geometry" />
        </mxCell>
        <mxCell id="NAWwyWHMbkKftdFxb2z5-17" value="&lt;font style=&quot;font-size: 24px;&quot;&gt;1&lt;/font&gt;" style="ellipse;whiteSpace=wrap;html=1;aspect=fixed;" parent="NAWwyWHMbkKftdFxb2z5-25" vertex="1">
          <mxGeometry x="240" width="80" height="80" as="geometry" />
        </mxCell>
        <mxCell id="NAWwyWHMbkKftdFxb2z5-18" value="" style="endArrow=classic;html=1;rounded=0;fontSize=24;entryX=0;entryY=0.5;entryDx=0;entryDy=0;" parent="NAWwyWHMbkKftdFxb2z5-25" target="NAWwyWHMbkKftdFxb2z5-16" edge="1">
          <mxGeometry relative="1" as="geometry">
            <mxPoint y="40" as="sourcePoint" />
            <mxPoint x="60" y="40" as="targetPoint" />
          </mxGeometry>
        </mxCell>
        <mxCell id="NAWwyWHMbkKftdFxb2z5-19" value="&lt;font style=&quot;font-size: 24px;&quot;&gt;λ&lt;/font&gt;" style="edgeLabel;resizable=0;html=1;;align=center;verticalAlign=middle;" parent="NAWwyWHMbkKftdFxb2z5-18" connectable="0" vertex="1">
          <mxGeometry relative="1" as="geometry" />
        </mxCell>
        <mxCell id="NAWwyWHMbkKftdFxb2z5-20" value="" style="endArrow=classic;html=1;rounded=0;fontSize=24;exitX=1;exitY=0.5;exitDx=0;exitDy=0;entryX=0;entryY=0.5;entryDx=0;entryDy=0;" parent="NAWwyWHMbkKftdFxb2z5-25" source="NAWwyWHMbkKftdFxb2z5-16" target="NAWwyWHMbkKftdFxb2z5-17" edge="1">
          <mxGeometry relative="1" as="geometry">
            <mxPoint x="170" y="39.710000000000036" as="sourcePoint" />
            <mxPoint x="260" y="40" as="targetPoint" />
          </mxGeometry>
        </mxCell>
        <mxCell id="NAWwyWHMbkKftdFxb2z5-21" value="&lt;font style=&quot;font-size: 24px;&quot;&gt;b&lt;/font&gt;" style="edgeLabel;resizable=0;html=1;;align=center;verticalAlign=middle;" parent="NAWwyWHMbkKftdFxb2z5-20" connectable="0" vertex="1">
          <mxGeometry relative="1" as="geometry" />
        </mxCell>
        <mxCell id="NAWwyWHMbkKftdFxb2z5-22" value="" style="endArrow=classic;html=1;rounded=0;fontSize=24;exitX=1;exitY=0.5;exitDx=0;exitDy=0;" parent="NAWwyWHMbkKftdFxb2z5-25" source="NAWwyWHMbkKftdFxb2z5-17" edge="1">
          <mxGeometry relative="1" as="geometry">
            <mxPoint x="10" y="50" as="sourcePoint" />
            <mxPoint x="400" y="40" as="targetPoint" />
          </mxGeometry>
        </mxCell>
        <mxCell id="NAWwyWHMbkKftdFxb2z5-23" value="&lt;font style=&quot;font-size: 24px;&quot;&gt;λ&lt;/font&gt;" style="edgeLabel;resizable=0;html=1;;align=center;verticalAlign=middle;" parent="NAWwyWHMbkKftdFxb2z5-22" connectable="0" vertex="1">
          <mxGeometry relative="1" as="geometry" />
        </mxCell>
        <mxCell id="NAWwyWHMbkKftdFxb2z5-36" value="" style="group" parent="1" vertex="1" connectable="0">
          <mxGeometry x="1610" y="980" width="400" height="80" as="geometry" />
        </mxCell>
        <mxCell id="NAWwyWHMbkKftdFxb2z5-57" value="" style="group" parent="NAWwyWHMbkKftdFxb2z5-36" vertex="1" connectable="0">
          <mxGeometry x="-10" y="40" width="320" height="80" as="geometry" />
        </mxCell>
        <mxCell id="NAWwyWHMbkKftdFxb2z5-37" value="&lt;font style=&quot;font-size: 24px;&quot;&gt;2&lt;/font&gt;" style="ellipse;whiteSpace=wrap;html=1;aspect=fixed;container=0;" parent="NAWwyWHMbkKftdFxb2z5-57" vertex="1">
          <mxGeometry width="80" height="80" as="geometry" />
        </mxCell>
        <mxCell id="NAWwyWHMbkKftdFxb2z5-38" value="&lt;font style=&quot;font-size: 24px;&quot;&gt;3&lt;/font&gt;" style="ellipse;whiteSpace=wrap;html=1;aspect=fixed;container=0;" parent="NAWwyWHMbkKftdFxb2z5-57" vertex="1">
          <mxGeometry x="160" width="80" height="80" as="geometry" />
        </mxCell>
        <mxCell id="NAWwyWHMbkKftdFxb2z5-43" value="" style="endArrow=classic;html=1;rounded=0;fontSize=24;exitX=1;exitY=0.5;exitDx=0;exitDy=0;" parent="NAWwyWHMbkKftdFxb2z5-57" source="NAWwyWHMbkKftdFxb2z5-38" edge="1">
          <mxGeometry relative="1" as="geometry">
            <mxPoint x="-70" y="50" as="sourcePoint" />
            <mxPoint x="320" y="40" as="targetPoint" />
          </mxGeometry>
        </mxCell>
        <mxCell id="NAWwyWHMbkKftdFxb2z5-44" value="&lt;font style=&quot;font-size: 24px;&quot;&gt;λ&lt;/font&gt;" style="edgeLabel;resizable=0;html=1;;align=center;verticalAlign=middle;container=0;" parent="NAWwyWHMbkKftdFxb2z5-43" connectable="0" vertex="1">
          <mxGeometry relative="1" as="geometry" />
        </mxCell>
        <mxCell id="NAWwyWHMbkKftdFxb2z5-53" value="" style="endArrow=classic;html=1;rounded=0;fontSize=24;exitX=1;exitY=0.5;exitDx=0;exitDy=0;entryX=0;entryY=0.5;entryDx=0;entryDy=0;" parent="NAWwyWHMbkKftdFxb2z5-57" source="NAWwyWHMbkKftdFxb2z5-37" target="NAWwyWHMbkKftdFxb2z5-38" edge="1">
          <mxGeometry relative="1" as="geometry">
            <mxPoint x="250" y="50" as="sourcePoint" />
            <mxPoint x="330" y="50" as="targetPoint" />
          </mxGeometry>
        </mxCell>
        <mxCell id="NAWwyWHMbkKftdFxb2z5-54" value="&lt;font style=&quot;font-size: 24px;&quot;&gt;λ&lt;/font&gt;" style="edgeLabel;resizable=0;html=1;;align=center;verticalAlign=middle;container=0;" parent="NAWwyWHMbkKftdFxb2z5-53" connectable="0" vertex="1">
          <mxGeometry relative="1" as="geometry" />
        </mxCell>
        <mxCell id="NAWwyWHMbkKftdFxb2z5-34" value="" style="endArrow=classic;html=1;rounded=0;fontSize=24;exitX=1;exitY=0.5;exitDx=0;exitDy=0;entryX=0;entryY=0.5;entryDx=0;entryDy=0;" parent="1" source="NAWwyWHMbkKftdFxb2z5-29" target="NAWwyWHMbkKftdFxb2z5-37" edge="1">
          <mxGeometry relative="1" as="geometry">
            <mxPoint x="1210" y="1070" as="sourcePoint" />
            <mxPoint x="1600" y="1060" as="targetPoint" />
          </mxGeometry>
        </mxCell>
        <mxCell id="NAWwyWHMbkKftdFxb2z5-35" value="&lt;font style=&quot;font-size: 24px;&quot;&gt;b&lt;/font&gt;" style="edgeLabel;resizable=0;html=1;;align=center;verticalAlign=middle;container=0;" parent="NAWwyWHMbkKftdFxb2z5-34" connectable="0" vertex="1">
          <mxGeometry relative="1" as="geometry" />
        </mxCell>
        <mxCell id="NAWwyWHMbkKftdFxb2z5-50" value="" style="endArrow=classic;html=1;rounded=0;fontSize=24;exitX=0.5;exitY=0;exitDx=0;exitDy=0;entryX=0.5;entryY=0;entryDx=0;entryDy=0;" parent="1" source="NAWwyWHMbkKftdFxb2z5-37" target="NAWwyWHMbkKftdFxb2z5-29" edge="1">
          <mxGeometry relative="1" as="geometry">
            <mxPoint x="1490" y="1110" as="sourcePoint" />
            <mxPoint x="1810" y="1110" as="targetPoint" />
            <Array as="points">
              <mxPoint x="1640" y="980" />
              <mxPoint x="1560" y="980" />
              <mxPoint x="1480" y="980" />
            </Array>
          </mxGeometry>
        </mxCell>
        <mxCell id="NAWwyWHMbkKftdFxb2z5-51" value="&lt;font style=&quot;font-size: 24px;&quot;&gt;λ&lt;/font&gt;" style="edgeLabel;resizable=0;html=1;;align=center;verticalAlign=middle;container=0;" parent="NAWwyWHMbkKftdFxb2z5-50" connectable="0" vertex="1">
          <mxGeometry relative="1" as="geometry" />
        </mxCell>
        <mxCell id="NAWwyWHMbkKftdFxb2z5-48" value="" style="endArrow=classic;html=1;rounded=0;fontSize=24;exitX=0.5;exitY=1;exitDx=0;exitDy=0;entryX=0.5;entryY=1;entryDx=0;entryDy=0;" parent="1" source="NAWwyWHMbkKftdFxb2z5-29" target="NAWwyWHMbkKftdFxb2z5-38" edge="1">
          <mxGeometry relative="1" as="geometry">
            <mxPoint x="1480" y="1120" as="sourcePoint" />
            <mxPoint x="1560" y="1200" as="targetPoint" />
            <Array as="points">
              <mxPoint x="1480" y="1140" />
              <mxPoint x="1800" y="1140" />
            </Array>
          </mxGeometry>
        </mxCell>
        <mxCell id="NAWwyWHMbkKftdFxb2z5-49" value="&lt;font style=&quot;font-size: 24px;&quot;&gt;λ&lt;/font&gt;" style="edgeLabel;resizable=0;html=1;;align=center;verticalAlign=middle;container=0;" parent="NAWwyWHMbkKftdFxb2z5-48" connectable="0" vertex="1">
          <mxGeometry relative="1" as="geometry" />
        </mxCell>
        <mxCell id="NAWwyWHMbkKftdFxb2z5-28" value="&lt;font style=&quot;font-size: 24px;&quot;&gt;0&lt;/font&gt;" style="ellipse;whiteSpace=wrap;html=1;aspect=fixed;container=0;" parent="1" vertex="1">
          <mxGeometry x="1280" y="1020" width="80" height="80" as="geometry" />
        </mxCell>
        <mxCell id="NAWwyWHMbkKftdFxb2z5-29" value="&lt;font style=&quot;font-size: 24px;&quot;&gt;1&lt;/font&gt;" style="ellipse;whiteSpace=wrap;html=1;aspect=fixed;container=0;" parent="1" vertex="1">
          <mxGeometry x="1440" y="1020" width="80" height="80" as="geometry" />
        </mxCell>
        <mxCell id="NAWwyWHMbkKftdFxb2z5-30" value="" style="endArrow=classic;html=1;rounded=0;fontSize=24;entryX=0;entryY=0.5;entryDx=0;entryDy=0;" parent="1" target="NAWwyWHMbkKftdFxb2z5-28" edge="1">
          <mxGeometry relative="1" as="geometry">
            <mxPoint x="1200" y="1060" as="sourcePoint" />
            <mxPoint x="1260" y="1060" as="targetPoint" />
          </mxGeometry>
        </mxCell>
        <mxCell id="NAWwyWHMbkKftdFxb2z5-31" value="&lt;font style=&quot;font-size: 24px;&quot;&gt;λ&lt;/font&gt;" style="edgeLabel;resizable=0;html=1;;align=center;verticalAlign=middle;container=0;" parent="NAWwyWHMbkKftdFxb2z5-30" connectable="0" vertex="1">
          <mxGeometry relative="1" as="geometry" />
        </mxCell>
        <mxCell id="NAWwyWHMbkKftdFxb2z5-32" value="" style="endArrow=classic;html=1;rounded=0;fontSize=24;exitX=1;exitY=0.5;exitDx=0;exitDy=0;entryX=0;entryY=0.5;entryDx=0;entryDy=0;" parent="1" source="NAWwyWHMbkKftdFxb2z5-28" target="NAWwyWHMbkKftdFxb2z5-29" edge="1">
          <mxGeometry relative="1" as="geometry">
            <mxPoint x="1370" y="1059.71" as="sourcePoint" />
            <mxPoint x="1460" y="1060" as="targetPoint" />
          </mxGeometry>
        </mxCell>
        <mxCell id="NAWwyWHMbkKftdFxb2z5-33" value="&lt;font style=&quot;font-size: 24px;&quot;&gt;b&lt;/font&gt;" style="edgeLabel;resizable=0;html=1;;align=center;verticalAlign=middle;container=0;" parent="NAWwyWHMbkKftdFxb2z5-32" connectable="0" vertex="1">
          <mxGeometry relative="1" as="geometry" />
        </mxCell>
        <mxCell id="NAWwyWHMbkKftdFxb2z5-72" value="" style="group" parent="1" vertex="1" connectable="0">
          <mxGeometry x="1200" y="1220" width="560" height="200" as="geometry" />
        </mxCell>
        <mxCell id="NAWwyWHMbkKftdFxb2z5-60" value="&lt;font style=&quot;font-size: 24px;&quot;&gt;2&lt;/font&gt;" style="ellipse;whiteSpace=wrap;html=1;aspect=fixed;container=0;" parent="NAWwyWHMbkKftdFxb2z5-72" vertex="1">
          <mxGeometry x="400" y="120" width="80" height="80" as="geometry" />
        </mxCell>
        <mxCell id="NAWwyWHMbkKftdFxb2z5-63" value="" style="endArrow=classic;html=1;rounded=0;fontSize=24;exitX=1;exitY=0;exitDx=0;exitDy=0;entryX=0;entryY=1;entryDx=0;entryDy=0;" parent="NAWwyWHMbkKftdFxb2z5-72" source="NAWwyWHMbkKftdFxb2z5-59" target="NAWwyWHMbkKftdFxb2z5-67" edge="1">
          <mxGeometry relative="1" as="geometry">
            <mxPoint x="170" y="159.71000000000004" as="sourcePoint" />
            <mxPoint x="260" y="160" as="targetPoint" />
          </mxGeometry>
        </mxCell>
        <mxCell id="NAWwyWHMbkKftdFxb2z5-64" value="&lt;font style=&quot;font-size: 24px;&quot;&gt;b&lt;/font&gt;" style="edgeLabel;resizable=0;html=1;;align=center;verticalAlign=middle;container=0;" parent="NAWwyWHMbkKftdFxb2z5-63" connectable="0" vertex="1">
          <mxGeometry relative="1" as="geometry" />
        </mxCell>
        <mxCell id="NAWwyWHMbkKftdFxb2z5-59" value="&lt;font style=&quot;font-size: 24px;&quot;&gt;0&lt;/font&gt;" style="ellipse;whiteSpace=wrap;html=1;aspect=fixed;container=0;" parent="NAWwyWHMbkKftdFxb2z5-72" vertex="1">
          <mxGeometry x="80" y="120" width="80" height="80" as="geometry" />
        </mxCell>
        <mxCell id="NAWwyWHMbkKftdFxb2z5-61" value="" style="endArrow=classic;html=1;rounded=0;fontSize=24;entryX=0;entryY=0.5;entryDx=0;entryDy=0;" parent="NAWwyWHMbkKftdFxb2z5-72" target="NAWwyWHMbkKftdFxb2z5-59" edge="1">
          <mxGeometry relative="1" as="geometry">
            <mxPoint y="160" as="sourcePoint" />
            <mxPoint x="60" y="160" as="targetPoint" />
          </mxGeometry>
        </mxCell>
        <mxCell id="NAWwyWHMbkKftdFxb2z5-62" value="&lt;font style=&quot;font-size: 24px;&quot;&gt;λ&lt;/font&gt;" style="edgeLabel;resizable=0;html=1;;align=center;verticalAlign=middle;container=0;" parent="NAWwyWHMbkKftdFxb2z5-61" connectable="0" vertex="1">
          <mxGeometry relative="1" as="geometry" />
        </mxCell>
        <mxCell id="NAWwyWHMbkKftdFxb2z5-65" value="" style="endArrow=classic;html=1;rounded=0;fontSize=24;exitX=1;exitY=0.5;exitDx=0;exitDy=0;" parent="NAWwyWHMbkKftdFxb2z5-72" source="NAWwyWHMbkKftdFxb2z5-60" edge="1">
          <mxGeometry relative="1" as="geometry">
            <mxPoint x="10" y="50" as="sourcePoint" />
            <mxPoint x="560" y="160" as="targetPoint" />
          </mxGeometry>
        </mxCell>
        <mxCell id="NAWwyWHMbkKftdFxb2z5-66" value="&lt;font style=&quot;font-size: 24px;&quot;&gt;λ&lt;/font&gt;" style="edgeLabel;resizable=0;html=1;;align=center;verticalAlign=middle;container=0;" parent="NAWwyWHMbkKftdFxb2z5-65" connectable="0" vertex="1">
          <mxGeometry relative="1" as="geometry" />
        </mxCell>
        <mxCell id="NAWwyWHMbkKftdFxb2z5-67" value="&lt;font style=&quot;font-size: 24px;&quot;&gt;1&lt;/font&gt;" style="ellipse;whiteSpace=wrap;html=1;aspect=fixed;container=0;" parent="NAWwyWHMbkKftdFxb2z5-72" vertex="1">
          <mxGeometry x="240" width="80" height="80" as="geometry" />
        </mxCell>
        <mxCell id="NAWwyWHMbkKftdFxb2z5-68" value="" style="endArrow=classic;html=1;rounded=0;fontSize=24;entryX=0;entryY=0.5;entryDx=0;entryDy=0;exitX=1;exitY=0.5;exitDx=0;exitDy=0;" parent="NAWwyWHMbkKftdFxb2z5-72" source="NAWwyWHMbkKftdFxb2z5-59" target="NAWwyWHMbkKftdFxb2z5-60" edge="1">
          <mxGeometry relative="1" as="geometry">
            <mxPoint x="180" y="159.65999999999997" as="sourcePoint" />
            <mxPoint x="260" y="159.65999999999997" as="targetPoint" />
          </mxGeometry>
        </mxCell>
        <mxCell id="NAWwyWHMbkKftdFxb2z5-69" value="&lt;font style=&quot;font-size: 24px;&quot;&gt;λ&lt;/font&gt;" style="edgeLabel;resizable=0;html=1;;align=center;verticalAlign=middle;container=0;" parent="NAWwyWHMbkKftdFxb2z5-68" connectable="0" vertex="1">
          <mxGeometry relative="1" as="geometry" />
        </mxCell>
        <mxCell id="NAWwyWHMbkKftdFxb2z5-70" value="" style="endArrow=classic;html=1;rounded=0;fontSize=24;entryX=0;entryY=0;entryDx=0;entryDy=0;exitX=1;exitY=1;exitDx=0;exitDy=0;" parent="NAWwyWHMbkKftdFxb2z5-72" source="NAWwyWHMbkKftdFxb2z5-67" target="NAWwyWHMbkKftdFxb2z5-60" edge="1">
          <mxGeometry relative="1" as="geometry">
            <mxPoint x="170" y="170" as="sourcePoint" />
            <mxPoint x="410" y="170" as="targetPoint" />
          </mxGeometry>
        </mxCell>
        <mxCell id="NAWwyWHMbkKftdFxb2z5-71" value="&lt;font style=&quot;font-size: 24px;&quot;&gt;λ&lt;/font&gt;" style="edgeLabel;resizable=0;html=1;;align=center;verticalAlign=middle;container=0;" parent="NAWwyWHMbkKftdFxb2z5-70" connectable="0" vertex="1">
          <mxGeometry relative="1" as="geometry" />
        </mxCell>
        <mxCell id="NAWwyWHMbkKftdFxb2z5-120" value="" style="group" parent="1" vertex="1" connectable="0">
          <mxGeometry x="1200" y="1500" width="960" height="280" as="geometry" />
        </mxCell>
        <mxCell id="NAWwyWHMbkKftdFxb2z5-73" value="" style="group" parent="NAWwyWHMbkKftdFxb2z5-120" vertex="1" connectable="0">
          <mxGeometry x="320" width="400" height="80" as="geometry" />
        </mxCell>
        <mxCell id="NAWwyWHMbkKftdFxb2z5-74" value="&lt;font style=&quot;font-size: 24px;&quot;&gt;0&lt;/font&gt;" style="ellipse;whiteSpace=wrap;html=1;aspect=fixed;" parent="NAWwyWHMbkKftdFxb2z5-73" vertex="1">
          <mxGeometry x="80" width="80" height="80" as="geometry" />
        </mxCell>
        <mxCell id="NAWwyWHMbkKftdFxb2z5-75" value="&lt;font style=&quot;font-size: 24px;&quot;&gt;1&lt;/font&gt;" style="ellipse;whiteSpace=wrap;html=1;aspect=fixed;" parent="NAWwyWHMbkKftdFxb2z5-73" vertex="1">
          <mxGeometry x="240" width="80" height="80" as="geometry" />
        </mxCell>
        <mxCell id="NAWwyWHMbkKftdFxb2z5-78" value="" style="endArrow=classic;html=1;rounded=0;fontSize=24;exitX=1;exitY=0.5;exitDx=0;exitDy=0;entryX=0;entryY=0.5;entryDx=0;entryDy=0;" parent="NAWwyWHMbkKftdFxb2z5-73" source="NAWwyWHMbkKftdFxb2z5-74" target="NAWwyWHMbkKftdFxb2z5-75" edge="1">
          <mxGeometry relative="1" as="geometry">
            <mxPoint x="170" y="39.71000000000001" as="sourcePoint" />
            <mxPoint x="260" y="40" as="targetPoint" />
          </mxGeometry>
        </mxCell>
        <mxCell id="NAWwyWHMbkKftdFxb2z5-79" value="&lt;font style=&quot;font-size: 24px;&quot;&gt;a&lt;/font&gt;" style="edgeLabel;resizable=0;html=1;;align=center;verticalAlign=middle;" parent="NAWwyWHMbkKftdFxb2z5-78" connectable="0" vertex="1">
          <mxGeometry relative="1" as="geometry" />
        </mxCell>
        <mxCell id="NAWwyWHMbkKftdFxb2z5-82" value="" style="group" parent="NAWwyWHMbkKftdFxb2z5-120" vertex="1" connectable="0">
          <mxGeometry x="320" y="160" width="400" height="80" as="geometry" />
        </mxCell>
        <mxCell id="NAWwyWHMbkKftdFxb2z5-83" value="&lt;font style=&quot;font-size: 24px;&quot;&gt;0&lt;/font&gt;" style="ellipse;whiteSpace=wrap;html=1;aspect=fixed;" parent="NAWwyWHMbkKftdFxb2z5-82" vertex="1">
          <mxGeometry x="80" width="80" height="80" as="geometry" />
        </mxCell>
        <mxCell id="NAWwyWHMbkKftdFxb2z5-84" value="&lt;font style=&quot;font-size: 24px;&quot;&gt;1&lt;/font&gt;" style="ellipse;whiteSpace=wrap;html=1;aspect=fixed;" parent="NAWwyWHMbkKftdFxb2z5-82" vertex="1">
          <mxGeometry x="240" width="80" height="80" as="geometry" />
        </mxCell>
        <mxCell id="NAWwyWHMbkKftdFxb2z5-87" value="" style="endArrow=classic;html=1;rounded=0;fontSize=24;exitX=1;exitY=0.5;exitDx=0;exitDy=0;entryX=0;entryY=0.5;entryDx=0;entryDy=0;" parent="NAWwyWHMbkKftdFxb2z5-82" source="NAWwyWHMbkKftdFxb2z5-83" target="NAWwyWHMbkKftdFxb2z5-84" edge="1">
          <mxGeometry relative="1" as="geometry">
            <mxPoint x="170" y="39.710000000000036" as="sourcePoint" />
            <mxPoint x="260" y="40" as="targetPoint" />
          </mxGeometry>
        </mxCell>
        <mxCell id="NAWwyWHMbkKftdFxb2z5-88" value="&lt;font style=&quot;font-size: 24px;&quot;&gt;b&lt;/font&gt;" style="edgeLabel;resizable=0;html=1;;align=center;verticalAlign=middle;" parent="NAWwyWHMbkKftdFxb2z5-87" connectable="0" vertex="1">
          <mxGeometry relative="1" as="geometry" />
        </mxCell>
        <mxCell id="NAWwyWHMbkKftdFxb2z5-91" value="&lt;font style=&quot;font-size: 24px;&quot;&gt;0&lt;/font&gt;" style="ellipse;whiteSpace=wrap;html=1;aspect=fixed;" parent="NAWwyWHMbkKftdFxb2z5-120" vertex="1">
          <mxGeometry x="240" y="80" width="80" height="80" as="geometry" />
        </mxCell>
        <mxCell id="NAWwyWHMbkKftdFxb2z5-76" value="" style="endArrow=classic;html=1;rounded=0;fontSize=24;entryX=0;entryY=0.5;entryDx=0;entryDy=0;exitX=1;exitY=0;exitDx=0;exitDy=0;" parent="NAWwyWHMbkKftdFxb2z5-120" source="NAWwyWHMbkKftdFxb2z5-91" target="NAWwyWHMbkKftdFxb2z5-74" edge="1">
          <mxGeometry relative="1" as="geometry">
            <mxPoint x="320" y="40" as="sourcePoint" />
            <mxPoint x="380" y="40" as="targetPoint" />
          </mxGeometry>
        </mxCell>
        <mxCell id="NAWwyWHMbkKftdFxb2z5-77" value="&lt;font style=&quot;font-size: 24px;&quot;&gt;λ&lt;/font&gt;" style="edgeLabel;resizable=0;html=1;;align=center;verticalAlign=middle;" parent="NAWwyWHMbkKftdFxb2z5-76" connectable="0" vertex="1">
          <mxGeometry relative="1" as="geometry" />
        </mxCell>
        <mxCell id="NAWwyWHMbkKftdFxb2z5-85" value="" style="endArrow=classic;html=1;rounded=0;fontSize=24;entryX=0;entryY=0.5;entryDx=0;entryDy=0;exitX=1;exitY=1;exitDx=0;exitDy=0;" parent="NAWwyWHMbkKftdFxb2z5-120" source="NAWwyWHMbkKftdFxb2z5-91" target="NAWwyWHMbkKftdFxb2z5-83" edge="1">
          <mxGeometry relative="1" as="geometry">
            <mxPoint x="320" y="200" as="sourcePoint" />
            <mxPoint x="380" y="200" as="targetPoint" />
          </mxGeometry>
        </mxCell>
        <mxCell id="NAWwyWHMbkKftdFxb2z5-86" value="&lt;font style=&quot;font-size: 24px;&quot;&gt;λ&lt;/font&gt;" style="edgeLabel;resizable=0;html=1;;align=center;verticalAlign=middle;" parent="NAWwyWHMbkKftdFxb2z5-85" connectable="0" vertex="1">
          <mxGeometry relative="1" as="geometry" />
        </mxCell>
        <mxCell id="NAWwyWHMbkKftdFxb2z5-95" value="&lt;font style=&quot;font-size: 24px;&quot;&gt;0&lt;/font&gt;" style="ellipse;whiteSpace=wrap;html=1;aspect=fixed;" parent="NAWwyWHMbkKftdFxb2z5-120" vertex="1">
          <mxGeometry x="720" y="80" width="80" height="80" as="geometry" />
        </mxCell>
        <mxCell id="NAWwyWHMbkKftdFxb2z5-80" value="" style="endArrow=classic;html=1;rounded=0;fontSize=24;exitX=1;exitY=0.5;exitDx=0;exitDy=0;entryX=0;entryY=0;entryDx=0;entryDy=0;" parent="NAWwyWHMbkKftdFxb2z5-120" source="NAWwyWHMbkKftdFxb2z5-75" target="NAWwyWHMbkKftdFxb2z5-95" edge="1">
          <mxGeometry relative="1" as="geometry">
            <mxPoint x="330" y="50" as="sourcePoint" />
            <mxPoint x="720" y="40" as="targetPoint" />
          </mxGeometry>
        </mxCell>
        <mxCell id="NAWwyWHMbkKftdFxb2z5-81" value="&lt;font style=&quot;font-size: 24px;&quot;&gt;λ&lt;/font&gt;" style="edgeLabel;resizable=0;html=1;;align=center;verticalAlign=middle;" parent="NAWwyWHMbkKftdFxb2z5-80" connectable="0" vertex="1">
          <mxGeometry relative="1" as="geometry" />
        </mxCell>
        <mxCell id="NAWwyWHMbkKftdFxb2z5-89" value="" style="endArrow=classic;html=1;rounded=0;fontSize=24;exitX=1;exitY=0.5;exitDx=0;exitDy=0;entryX=0;entryY=1;entryDx=0;entryDy=0;" parent="NAWwyWHMbkKftdFxb2z5-120" source="NAWwyWHMbkKftdFxb2z5-84" target="NAWwyWHMbkKftdFxb2z5-95" edge="1">
          <mxGeometry relative="1" as="geometry">
            <mxPoint x="330" y="210" as="sourcePoint" />
            <mxPoint x="720" y="200" as="targetPoint" />
          </mxGeometry>
        </mxCell>
        <mxCell id="NAWwyWHMbkKftdFxb2z5-90" value="&lt;font style=&quot;font-size: 24px;&quot;&gt;λ&lt;/font&gt;" style="edgeLabel;resizable=0;html=1;;align=center;verticalAlign=middle;" parent="NAWwyWHMbkKftdFxb2z5-89" connectable="0" vertex="1">
          <mxGeometry relative="1" as="geometry" />
        </mxCell>
        <mxCell id="NAWwyWHMbkKftdFxb2z5-96" value="" style="endArrow=classic;html=1;rounded=0;fontSize=24;exitX=1;exitY=0.5;exitDx=0;exitDy=0;entryX=0;entryY=0.5;entryDx=0;entryDy=0;" parent="NAWwyWHMbkKftdFxb2z5-120" source="NAWwyWHMbkKftdFxb2z5-95" target="NAWwyWHMbkKftdFxb2z5-98" edge="1">
          <mxGeometry relative="1" as="geometry">
            <mxPoint x="570" y="-230" as="sourcePoint" />
            <mxPoint x="880" y="120" as="targetPoint" />
          </mxGeometry>
        </mxCell>
        <mxCell id="NAWwyWHMbkKftdFxb2z5-97" value="&lt;font style=&quot;font-size: 24px;&quot;&gt;λ&lt;/font&gt;" style="edgeLabel;resizable=0;html=1;;align=center;verticalAlign=middle;container=0;" parent="NAWwyWHMbkKftdFxb2z5-96" connectable="0" vertex="1">
          <mxGeometry relative="1" as="geometry" />
        </mxCell>
        <mxCell id="NAWwyWHMbkKftdFxb2z5-98" value="&lt;font style=&quot;font-size: 24px;&quot;&gt;0&lt;/font&gt;" style="ellipse;whiteSpace=wrap;html=1;aspect=fixed;" parent="NAWwyWHMbkKftdFxb2z5-120" vertex="1">
          <mxGeometry x="880" y="80" width="80" height="80" as="geometry" />
        </mxCell>
        <mxCell id="NAWwyWHMbkKftdFxb2z5-99" value="&lt;font style=&quot;font-size: 24px;&quot;&gt;0&lt;/font&gt;" style="ellipse;whiteSpace=wrap;html=1;aspect=fixed;" parent="NAWwyWHMbkKftdFxb2z5-120" vertex="1">
          <mxGeometry x="80" y="80" width="80" height="80" as="geometry" />
        </mxCell>
        <mxCell id="NAWwyWHMbkKftdFxb2z5-100" value="" style="endArrow=classic;html=1;rounded=0;fontSize=24;entryX=0;entryY=0.5;entryDx=0;entryDy=0;exitX=1;exitY=0.5;exitDx=0;exitDy=0;" parent="NAWwyWHMbkKftdFxb2z5-120" source="NAWwyWHMbkKftdFxb2z5-99" target="NAWwyWHMbkKftdFxb2z5-91" edge="1">
          <mxGeometry relative="1" as="geometry">
            <mxPoint x="318" y="102" as="sourcePoint" />
            <mxPoint x="410" y="50" as="targetPoint" />
          </mxGeometry>
        </mxCell>
        <mxCell id="NAWwyWHMbkKftdFxb2z5-101" value="&lt;font style=&quot;font-size: 24px;&quot;&gt;λ&lt;/font&gt;" style="edgeLabel;resizable=0;html=1;;align=center;verticalAlign=middle;" parent="NAWwyWHMbkKftdFxb2z5-100" connectable="0" vertex="1">
          <mxGeometry relative="1" as="geometry" />
        </mxCell>
        <mxCell id="NAWwyWHMbkKftdFxb2z5-102" value="" style="endArrow=classic;html=1;rounded=0;fontSize=24;entryX=0.5;entryY=1;entryDx=0;entryDy=0;exitX=0.5;exitY=1;exitDx=0;exitDy=0;" parent="NAWwyWHMbkKftdFxb2z5-120" source="NAWwyWHMbkKftdFxb2z5-99" target="NAWwyWHMbkKftdFxb2z5-98" edge="1">
          <mxGeometry relative="1" as="geometry">
            <mxPoint x="170" y="130" as="sourcePoint" />
            <mxPoint x="250" y="130" as="targetPoint" />
            <Array as="points">
              <mxPoint x="120" y="280" />
              <mxPoint x="520" y="280" />
              <mxPoint x="920" y="280" />
            </Array>
          </mxGeometry>
        </mxCell>
        <mxCell id="NAWwyWHMbkKftdFxb2z5-103" value="&lt;font style=&quot;font-size: 24px;&quot;&gt;λ&lt;/font&gt;" style="edgeLabel;resizable=0;html=1;;align=center;verticalAlign=middle;" parent="NAWwyWHMbkKftdFxb2z5-102" connectable="0" vertex="1">
          <mxGeometry relative="1" as="geometry" />
        </mxCell>
        <mxCell id="NAWwyWHMbkKftdFxb2z5-104" value="" style="endArrow=classic;html=1;rounded=0;fontSize=24;entryX=0;entryY=0.5;entryDx=0;entryDy=0;" parent="NAWwyWHMbkKftdFxb2z5-120" target="NAWwyWHMbkKftdFxb2z5-99" edge="1">
          <mxGeometry relative="1" as="geometry">
            <mxPoint y="120" as="sourcePoint" />
            <mxPoint x="70" y="119.66000000000008" as="targetPoint" />
          </mxGeometry>
        </mxCell>
        <mxCell id="NAWwyWHMbkKftdFxb2z5-105" value="&lt;font style=&quot;font-size: 24px;&quot;&gt;λ&lt;/font&gt;" style="edgeLabel;resizable=0;html=1;;align=center;verticalAlign=middle;" parent="NAWwyWHMbkKftdFxb2z5-104" connectable="0" vertex="1">
          <mxGeometry relative="1" as="geometry" />
        </mxCell>
        <mxCell id="NAWwyWHMbkKftdFxb2z5-174" value="" style="group" parent="1" vertex="1" connectable="0">
          <mxGeometry x="1120" y="1940" width="1040" height="280" as="geometry" />
        </mxCell>
        <mxCell id="NAWwyWHMbkKftdFxb2z5-159" value="" style="group" parent="NAWwyWHMbkKftdFxb2z5-174" vertex="1" connectable="0">
          <mxGeometry x="240" width="400" height="80" as="geometry" />
        </mxCell>
        <mxCell id="NAWwyWHMbkKftdFxb2z5-160" value="&lt;font style=&quot;font-size: 24px;&quot;&gt;0&lt;/font&gt;" style="ellipse;whiteSpace=wrap;html=1;aspect=fixed;" parent="NAWwyWHMbkKftdFxb2z5-159" vertex="1">
          <mxGeometry x="80" width="80" height="80" as="geometry" />
        </mxCell>
        <mxCell id="NAWwyWHMbkKftdFxb2z5-161" value="&lt;font style=&quot;font-size: 24px;&quot;&gt;1&lt;/font&gt;" style="ellipse;whiteSpace=wrap;html=1;aspect=fixed;" parent="NAWwyWHMbkKftdFxb2z5-159" vertex="1">
          <mxGeometry x="240" width="80" height="80" as="geometry" />
        </mxCell>
        <mxCell id="NAWwyWHMbkKftdFxb2z5-164" value="" style="endArrow=classic;html=1;rounded=0;fontSize=24;exitX=1;exitY=0.5;exitDx=0;exitDy=0;entryX=0;entryY=0.5;entryDx=0;entryDy=0;" parent="NAWwyWHMbkKftdFxb2z5-159" source="NAWwyWHMbkKftdFxb2z5-160" target="NAWwyWHMbkKftdFxb2z5-161" edge="1">
          <mxGeometry relative="1" as="geometry">
            <mxPoint x="170" y="39.71000000000001" as="sourcePoint" />
            <mxPoint x="260" y="40" as="targetPoint" />
          </mxGeometry>
        </mxCell>
        <mxCell id="NAWwyWHMbkKftdFxb2z5-165" value="&lt;font style=&quot;font-size: 24px;&quot;&gt;a&lt;/font&gt;" style="edgeLabel;resizable=0;html=1;;align=center;verticalAlign=middle;" parent="NAWwyWHMbkKftdFxb2z5-164" connectable="0" vertex="1">
          <mxGeometry relative="1" as="geometry" />
        </mxCell>
        <mxCell id="NAWwyWHMbkKftdFxb2z5-168" value="" style="group" parent="NAWwyWHMbkKftdFxb2z5-174" vertex="1" connectable="0">
          <mxGeometry x="240" y="120" width="720" height="160" as="geometry" />
        </mxCell>
        <mxCell id="NAWwyWHMbkKftdFxb2z5-140" value="" style="group" parent="NAWwyWHMbkKftdFxb2z5-168" vertex="1" connectable="0">
          <mxGeometry x="400" y="40" width="320" height="80" as="geometry" />
        </mxCell>
        <mxCell id="NAWwyWHMbkKftdFxb2z5-141" value="&lt;font style=&quot;font-size: 24px;&quot;&gt;2&lt;/font&gt;" style="ellipse;whiteSpace=wrap;html=1;aspect=fixed;container=0;" parent="NAWwyWHMbkKftdFxb2z5-140" vertex="1">
          <mxGeometry width="80" height="80" as="geometry" />
        </mxCell>
        <mxCell id="NAWwyWHMbkKftdFxb2z5-142" value="&lt;font style=&quot;font-size: 24px;&quot;&gt;3&lt;/font&gt;" style="ellipse;whiteSpace=wrap;html=1;aspect=fixed;container=0;" parent="NAWwyWHMbkKftdFxb2z5-140" vertex="1">
          <mxGeometry x="160" width="80" height="80" as="geometry" />
        </mxCell>
        <mxCell id="NAWwyWHMbkKftdFxb2z5-145" value="" style="endArrow=classic;html=1;rounded=0;fontSize=24;exitX=1;exitY=0.5;exitDx=0;exitDy=0;entryX=0;entryY=0.5;entryDx=0;entryDy=0;" parent="NAWwyWHMbkKftdFxb2z5-140" source="NAWwyWHMbkKftdFxb2z5-141" target="NAWwyWHMbkKftdFxb2z5-142" edge="1">
          <mxGeometry relative="1" as="geometry">
            <mxPoint x="250" y="50" as="sourcePoint" />
            <mxPoint x="330" y="50" as="targetPoint" />
          </mxGeometry>
        </mxCell>
        <mxCell id="NAWwyWHMbkKftdFxb2z5-146" value="&lt;font style=&quot;font-size: 24px;&quot;&gt;λ&lt;/font&gt;" style="edgeLabel;resizable=0;html=1;;align=center;verticalAlign=middle;container=0;" parent="NAWwyWHMbkKftdFxb2z5-145" connectable="0" vertex="1">
          <mxGeometry relative="1" as="geometry" />
        </mxCell>
        <mxCell id="NAWwyWHMbkKftdFxb2z5-147" value="" style="endArrow=classic;html=1;rounded=0;fontSize=24;exitX=1;exitY=0.5;exitDx=0;exitDy=0;entryX=0;entryY=0.5;entryDx=0;entryDy=0;" parent="NAWwyWHMbkKftdFxb2z5-168" source="NAWwyWHMbkKftdFxb2z5-154" target="NAWwyWHMbkKftdFxb2z5-141" edge="1">
          <mxGeometry relative="1" as="geometry">
            <mxPoint x="10" y="90" as="sourcePoint" />
            <mxPoint x="400" y="80" as="targetPoint" />
          </mxGeometry>
        </mxCell>
        <mxCell id="NAWwyWHMbkKftdFxb2z5-148" value="&lt;font style=&quot;font-size: 24px;&quot;&gt;b&lt;/font&gt;" style="edgeLabel;resizable=0;html=1;;align=center;verticalAlign=middle;container=0;" parent="NAWwyWHMbkKftdFxb2z5-147" connectable="0" vertex="1">
          <mxGeometry relative="1" as="geometry" />
        </mxCell>
        <mxCell id="NAWwyWHMbkKftdFxb2z5-149" value="" style="endArrow=classic;html=1;rounded=0;fontSize=24;exitX=0.5;exitY=0;exitDx=0;exitDy=0;entryX=0.5;entryY=0;entryDx=0;entryDy=0;" parent="NAWwyWHMbkKftdFxb2z5-168" source="NAWwyWHMbkKftdFxb2z5-141" target="NAWwyWHMbkKftdFxb2z5-154" edge="1">
          <mxGeometry relative="1" as="geometry">
            <mxPoint x="290" y="130" as="sourcePoint" />
            <mxPoint x="610" y="130" as="targetPoint" />
            <Array as="points">
              <mxPoint x="440" />
              <mxPoint x="360" />
              <mxPoint x="280" />
            </Array>
          </mxGeometry>
        </mxCell>
        <mxCell id="NAWwyWHMbkKftdFxb2z5-150" value="&lt;font style=&quot;font-size: 24px;&quot;&gt;λ&lt;/font&gt;" style="edgeLabel;resizable=0;html=1;;align=center;verticalAlign=middle;container=0;" parent="NAWwyWHMbkKftdFxb2z5-149" connectable="0" vertex="1">
          <mxGeometry relative="1" as="geometry" />
        </mxCell>
        <mxCell id="NAWwyWHMbkKftdFxb2z5-151" value="" style="endArrow=classic;html=1;rounded=0;fontSize=24;exitX=0.5;exitY=1;exitDx=0;exitDy=0;entryX=0.5;entryY=1;entryDx=0;entryDy=0;" parent="NAWwyWHMbkKftdFxb2z5-168" source="NAWwyWHMbkKftdFxb2z5-154" target="NAWwyWHMbkKftdFxb2z5-142" edge="1">
          <mxGeometry relative="1" as="geometry">
            <mxPoint x="280" y="140" as="sourcePoint" />
            <mxPoint x="360" y="220" as="targetPoint" />
            <Array as="points">
              <mxPoint x="280" y="160" />
              <mxPoint x="600" y="160" />
            </Array>
          </mxGeometry>
        </mxCell>
        <mxCell id="NAWwyWHMbkKftdFxb2z5-152" value="&lt;font style=&quot;font-size: 24px;&quot;&gt;λ&lt;/font&gt;" style="edgeLabel;resizable=0;html=1;;align=center;verticalAlign=middle;container=0;" parent="NAWwyWHMbkKftdFxb2z5-151" connectable="0" vertex="1">
          <mxGeometry relative="1" as="geometry" />
        </mxCell>
        <mxCell id="NAWwyWHMbkKftdFxb2z5-153" value="&lt;font style=&quot;font-size: 24px;&quot;&gt;0&lt;/font&gt;" style="ellipse;whiteSpace=wrap;html=1;aspect=fixed;container=0;" parent="NAWwyWHMbkKftdFxb2z5-168" vertex="1">
          <mxGeometry x="80" y="40" width="80" height="80" as="geometry" />
        </mxCell>
        <mxCell id="NAWwyWHMbkKftdFxb2z5-154" value="&lt;font style=&quot;font-size: 24px;&quot;&gt;1&lt;/font&gt;" style="ellipse;whiteSpace=wrap;html=1;aspect=fixed;container=0;" parent="NAWwyWHMbkKftdFxb2z5-168" vertex="1">
          <mxGeometry x="240" y="40" width="80" height="80" as="geometry" />
        </mxCell>
        <mxCell id="NAWwyWHMbkKftdFxb2z5-157" value="" style="endArrow=classic;html=1;rounded=0;fontSize=24;exitX=1;exitY=0.5;exitDx=0;exitDy=0;entryX=0;entryY=0.5;entryDx=0;entryDy=0;" parent="NAWwyWHMbkKftdFxb2z5-168" source="NAWwyWHMbkKftdFxb2z5-153" target="NAWwyWHMbkKftdFxb2z5-154" edge="1">
          <mxGeometry relative="1" as="geometry">
            <mxPoint x="170" y="79.71000000000004" as="sourcePoint" />
            <mxPoint x="260" y="80" as="targetPoint" />
          </mxGeometry>
        </mxCell>
        <mxCell id="NAWwyWHMbkKftdFxb2z5-158" value="&lt;font style=&quot;font-size: 24px;&quot;&gt;b&lt;/font&gt;" style="edgeLabel;resizable=0;html=1;;align=center;verticalAlign=middle;container=0;" parent="NAWwyWHMbkKftdFxb2z5-157" connectable="0" vertex="1">
          <mxGeometry relative="1" as="geometry" />
        </mxCell>
        <mxCell id="NAWwyWHMbkKftdFxb2z5-169" value="&lt;font style=&quot;font-size: 24px;&quot;&gt;0&lt;/font&gt;" style="ellipse;whiteSpace=wrap;html=1;aspect=fixed;" parent="NAWwyWHMbkKftdFxb2z5-174" vertex="1">
          <mxGeometry x="160" y="80" width="80" height="80" as="geometry" />
        </mxCell>
        <mxCell id="NAWwyWHMbkKftdFxb2z5-170" value="&lt;font style=&quot;font-size: 24px;&quot;&gt;0&lt;/font&gt;" style="ellipse;whiteSpace=wrap;html=1;aspect=fixed;" parent="NAWwyWHMbkKftdFxb2z5-174" vertex="1">
          <mxGeometry y="80" width="80" height="80" as="geometry" />
        </mxCell>
        <mxCell id="NAWwyWHMbkKftdFxb2z5-162" value="" style="endArrow=classic;html=1;rounded=0;fontSize=24;entryX=0;entryY=0.5;entryDx=0;entryDy=0;exitX=1;exitY=0;exitDx=0;exitDy=0;" parent="NAWwyWHMbkKftdFxb2z5-174" source="NAWwyWHMbkKftdFxb2z5-169" target="NAWwyWHMbkKftdFxb2z5-160" edge="1">
          <mxGeometry relative="1" as="geometry">
            <mxPoint x="240" y="40" as="sourcePoint" />
            <mxPoint x="300" y="40" as="targetPoint" />
          </mxGeometry>
        </mxCell>
        <mxCell id="NAWwyWHMbkKftdFxb2z5-163" value="&lt;font style=&quot;font-size: 24px;&quot;&gt;λ&lt;/font&gt;" style="edgeLabel;resizable=0;html=1;;align=center;verticalAlign=middle;" parent="NAWwyWHMbkKftdFxb2z5-162" connectable="0" vertex="1">
          <mxGeometry relative="1" as="geometry" />
        </mxCell>
        <mxCell id="NAWwyWHMbkKftdFxb2z5-155" value="" style="endArrow=classic;html=1;rounded=0;fontSize=24;entryX=0;entryY=0.5;entryDx=0;entryDy=0;exitX=0.861;exitY=0.911;exitDx=0;exitDy=0;exitPerimeter=0;" parent="NAWwyWHMbkKftdFxb2z5-174" source="NAWwyWHMbkKftdFxb2z5-169" target="NAWwyWHMbkKftdFxb2z5-153" edge="1">
          <mxGeometry relative="1" as="geometry">
            <mxPoint x="240" y="200" as="sourcePoint" />
            <mxPoint x="300" y="200" as="targetPoint" />
          </mxGeometry>
        </mxCell>
        <mxCell id="NAWwyWHMbkKftdFxb2z5-156" value="&lt;font style=&quot;font-size: 24px;&quot;&gt;λ&lt;/font&gt;" style="edgeLabel;resizable=0;html=1;;align=center;verticalAlign=middle;container=0;" parent="NAWwyWHMbkKftdFxb2z5-155" connectable="0" vertex="1">
          <mxGeometry relative="1" as="geometry" />
        </mxCell>
        <mxCell id="NAWwyWHMbkKftdFxb2z5-171" value="" style="endArrow=classic;html=1;rounded=0;fontSize=24;entryX=0;entryY=0.5;entryDx=0;entryDy=0;exitX=1;exitY=0.5;exitDx=0;exitDy=0;" parent="NAWwyWHMbkKftdFxb2z5-174" source="NAWwyWHMbkKftdFxb2z5-170" target="NAWwyWHMbkKftdFxb2z5-169" edge="1">
          <mxGeometry relative="1" as="geometry">
            <mxPoint x="238" y="102" as="sourcePoint" />
            <mxPoint x="330" y="50" as="targetPoint" />
          </mxGeometry>
        </mxCell>
        <mxCell id="NAWwyWHMbkKftdFxb2z5-172" value="&lt;font style=&quot;font-size: 24px;&quot;&gt;λ&lt;/font&gt;" style="edgeLabel;resizable=0;html=1;;align=center;verticalAlign=middle;" parent="NAWwyWHMbkKftdFxb2z5-171" connectable="0" vertex="1">
          <mxGeometry relative="1" as="geometry" />
        </mxCell>
        <mxCell id="NAWwyWHMbkKftdFxb2z5-173" value="&lt;font style=&quot;font-size: 24px;&quot;&gt;0&lt;/font&gt;" style="ellipse;whiteSpace=wrap;html=1;aspect=fixed;" parent="NAWwyWHMbkKftdFxb2z5-174" vertex="1">
          <mxGeometry x="960" y="80" width="80" height="80" as="geometry" />
        </mxCell>
        <mxCell id="NAWwyWHMbkKftdFxb2z5-143" value="" style="endArrow=classic;html=1;rounded=0;fontSize=24;exitX=1;exitY=0.5;exitDx=0;exitDy=0;entryX=0;entryY=1;entryDx=0;entryDy=0;" parent="NAWwyWHMbkKftdFxb2z5-174" source="NAWwyWHMbkKftdFxb2z5-142" target="NAWwyWHMbkKftdFxb2z5-173" edge="1">
          <mxGeometry relative="1" as="geometry">
            <mxPoint x="570" y="210" as="sourcePoint" />
            <mxPoint x="960" y="200" as="targetPoint" />
          </mxGeometry>
        </mxCell>
        <mxCell id="NAWwyWHMbkKftdFxb2z5-144" value="&lt;font style=&quot;font-size: 24px;&quot;&gt;λ&lt;/font&gt;" style="edgeLabel;resizable=0;html=1;;align=center;verticalAlign=middle;container=0;" parent="NAWwyWHMbkKftdFxb2z5-143" connectable="0" vertex="1">
          <mxGeometry relative="1" as="geometry" />
        </mxCell>
        <mxCell id="NAWwyWHMbkKftdFxb2z5-166" value="" style="endArrow=classic;html=1;rounded=0;fontSize=24;exitX=1;exitY=0.5;exitDx=0;exitDy=0;entryX=0;entryY=0;entryDx=0;entryDy=0;" parent="NAWwyWHMbkKftdFxb2z5-174" source="NAWwyWHMbkKftdFxb2z5-161" target="NAWwyWHMbkKftdFxb2z5-173" edge="1">
          <mxGeometry relative="1" as="geometry">
            <mxPoint x="250" y="50" as="sourcePoint" />
            <mxPoint x="640" y="40" as="targetPoint" />
          </mxGeometry>
        </mxCell>
        <mxCell id="NAWwyWHMbkKftdFxb2z5-167" value="&lt;font style=&quot;font-size: 24px;&quot;&gt;λ&lt;/font&gt;" style="edgeLabel;resizable=0;html=1;;align=center;verticalAlign=middle;" parent="NAWwyWHMbkKftdFxb2z5-166" connectable="0" vertex="1">
          <mxGeometry relative="1" as="geometry" />
        </mxCell>
        <mxCell id="NAWwyWHMbkKftdFxb2z5-175" value="" style="group" parent="1" vertex="1" connectable="0">
          <mxGeometry x="840" y="160" width="1040" height="280" as="geometry" />
        </mxCell>
        <mxCell id="NAWwyWHMbkKftdFxb2z5-176" value="" style="group" parent="NAWwyWHMbkKftdFxb2z5-175" vertex="1" connectable="0">
          <mxGeometry x="240" width="400" height="80" as="geometry" />
        </mxCell>
        <mxCell id="NAWwyWHMbkKftdFxb2z5-177" value="&lt;font style=&quot;font-size: 24px;&quot;&gt;2&lt;/font&gt;" style="ellipse;whiteSpace=wrap;html=1;aspect=fixed;" parent="NAWwyWHMbkKftdFxb2z5-176" vertex="1">
          <mxGeometry x="80" width="80" height="80" as="geometry" />
        </mxCell>
        <mxCell id="NAWwyWHMbkKftdFxb2z5-178" value="&lt;font style=&quot;font-size: 24px;&quot;&gt;3&lt;/font&gt;" style="ellipse;whiteSpace=wrap;html=1;aspect=fixed;" parent="NAWwyWHMbkKftdFxb2z5-176" vertex="1">
          <mxGeometry x="240" width="80" height="80" as="geometry" />
        </mxCell>
        <mxCell id="NAWwyWHMbkKftdFxb2z5-179" value="" style="endArrow=classic;html=1;rounded=0;fontSize=24;exitX=1;exitY=0.5;exitDx=0;exitDy=0;entryX=0;entryY=0.5;entryDx=0;entryDy=0;" parent="NAWwyWHMbkKftdFxb2z5-176" source="NAWwyWHMbkKftdFxb2z5-177" target="NAWwyWHMbkKftdFxb2z5-178" edge="1">
          <mxGeometry relative="1" as="geometry">
            <mxPoint x="170" y="39.71000000000001" as="sourcePoint" />
            <mxPoint x="260" y="40" as="targetPoint" />
          </mxGeometry>
        </mxCell>
        <mxCell id="NAWwyWHMbkKftdFxb2z5-180" value="&lt;font style=&quot;font-size: 24px;&quot;&gt;a&lt;/font&gt;" style="edgeLabel;resizable=0;html=1;;align=center;verticalAlign=middle;" parent="NAWwyWHMbkKftdFxb2z5-179" connectable="0" vertex="1">
          <mxGeometry relative="1" as="geometry" />
        </mxCell>
        <mxCell id="NAWwyWHMbkKftdFxb2z5-181" value="" style="group" parent="NAWwyWHMbkKftdFxb2z5-175" vertex="1" connectable="0">
          <mxGeometry x="240" y="120" width="720" height="160" as="geometry" />
        </mxCell>
        <mxCell id="NAWwyWHMbkKftdFxb2z5-182" value="" style="group" parent="NAWwyWHMbkKftdFxb2z5-181" vertex="1" connectable="0">
          <mxGeometry x="400" y="40" width="320" height="80" as="geometry" />
        </mxCell>
        <mxCell id="NAWwyWHMbkKftdFxb2z5-183" value="&lt;font style=&quot;font-size: 24px;&quot;&gt;6&lt;/font&gt;" style="ellipse;whiteSpace=wrap;html=1;aspect=fixed;container=0;" parent="NAWwyWHMbkKftdFxb2z5-182" vertex="1">
          <mxGeometry width="80" height="80" as="geometry" />
        </mxCell>
        <mxCell id="NAWwyWHMbkKftdFxb2z5-184" value="&lt;font style=&quot;font-size: 24px;&quot;&gt;7&lt;/font&gt;" style="ellipse;whiteSpace=wrap;html=1;aspect=fixed;container=0;" parent="NAWwyWHMbkKftdFxb2z5-182" vertex="1">
          <mxGeometry x="160" width="80" height="80" as="geometry" />
        </mxCell>
        <mxCell id="NAWwyWHMbkKftdFxb2z5-185" value="" style="endArrow=classic;html=1;rounded=0;fontSize=24;exitX=1;exitY=0.5;exitDx=0;exitDy=0;entryX=0;entryY=0.5;entryDx=0;entryDy=0;" parent="NAWwyWHMbkKftdFxb2z5-182" source="NAWwyWHMbkKftdFxb2z5-183" target="NAWwyWHMbkKftdFxb2z5-184" edge="1">
          <mxGeometry relative="1" as="geometry">
            <mxPoint x="250" y="50" as="sourcePoint" />
            <mxPoint x="330" y="50" as="targetPoint" />
          </mxGeometry>
        </mxCell>
        <mxCell id="NAWwyWHMbkKftdFxb2z5-186" value="&lt;font style=&quot;font-size: 24px;&quot;&gt;λ&lt;/font&gt;" style="edgeLabel;resizable=0;html=1;;align=center;verticalAlign=middle;container=0;" parent="NAWwyWHMbkKftdFxb2z5-185" connectable="0" vertex="1">
          <mxGeometry relative="1" as="geometry" />
        </mxCell>
        <mxCell id="NAWwyWHMbkKftdFxb2z5-187" value="" style="endArrow=classic;html=1;rounded=0;fontSize=24;exitX=1;exitY=0.5;exitDx=0;exitDy=0;entryX=0;entryY=0.5;entryDx=0;entryDy=0;" parent="NAWwyWHMbkKftdFxb2z5-181" source="NAWwyWHMbkKftdFxb2z5-194" target="NAWwyWHMbkKftdFxb2z5-183" edge="1">
          <mxGeometry relative="1" as="geometry">
            <mxPoint x="10" y="90" as="sourcePoint" />
            <mxPoint x="400" y="80" as="targetPoint" />
          </mxGeometry>
        </mxCell>
        <mxCell id="NAWwyWHMbkKftdFxb2z5-188" value="&lt;font style=&quot;font-size: 24px;&quot;&gt;b&lt;/font&gt;" style="edgeLabel;resizable=0;html=1;;align=center;verticalAlign=middle;container=0;" parent="NAWwyWHMbkKftdFxb2z5-187" connectable="0" vertex="1">
          <mxGeometry relative="1" as="geometry" />
        </mxCell>
        <mxCell id="NAWwyWHMbkKftdFxb2z5-189" value="" style="endArrow=classic;html=1;rounded=0;fontSize=24;exitX=0.5;exitY=0;exitDx=0;exitDy=0;entryX=0.5;entryY=0;entryDx=0;entryDy=0;" parent="NAWwyWHMbkKftdFxb2z5-181" source="NAWwyWHMbkKftdFxb2z5-183" target="NAWwyWHMbkKftdFxb2z5-194" edge="1">
          <mxGeometry relative="1" as="geometry">
            <mxPoint x="290" y="130" as="sourcePoint" />
            <mxPoint x="610" y="130" as="targetPoint" />
            <Array as="points">
              <mxPoint x="440" />
              <mxPoint x="360" />
              <mxPoint x="280" />
            </Array>
          </mxGeometry>
        </mxCell>
        <mxCell id="NAWwyWHMbkKftdFxb2z5-190" value="&lt;font style=&quot;font-size: 24px;&quot;&gt;λ&lt;/font&gt;" style="edgeLabel;resizable=0;html=1;;align=center;verticalAlign=middle;container=0;" parent="NAWwyWHMbkKftdFxb2z5-189" connectable="0" vertex="1">
          <mxGeometry relative="1" as="geometry" />
        </mxCell>
        <mxCell id="NAWwyWHMbkKftdFxb2z5-191" value="" style="endArrow=classic;html=1;rounded=0;fontSize=24;exitX=0.5;exitY=1;exitDx=0;exitDy=0;entryX=0.5;entryY=1;entryDx=0;entryDy=0;" parent="NAWwyWHMbkKftdFxb2z5-181" source="NAWwyWHMbkKftdFxb2z5-194" target="NAWwyWHMbkKftdFxb2z5-184" edge="1">
          <mxGeometry relative="1" as="geometry">
            <mxPoint x="280" y="140" as="sourcePoint" />
            <mxPoint x="360" y="220" as="targetPoint" />
            <Array as="points">
              <mxPoint x="280" y="160" />
              <mxPoint x="600" y="160" />
            </Array>
          </mxGeometry>
        </mxCell>
        <mxCell id="NAWwyWHMbkKftdFxb2z5-192" value="&lt;font style=&quot;font-size: 24px;&quot;&gt;λ&lt;/font&gt;" style="edgeLabel;resizable=0;html=1;;align=center;verticalAlign=middle;container=0;" parent="NAWwyWHMbkKftdFxb2z5-191" connectable="0" vertex="1">
          <mxGeometry relative="1" as="geometry" />
        </mxCell>
        <mxCell id="NAWwyWHMbkKftdFxb2z5-193" value="&lt;font style=&quot;font-size: 24px;&quot;&gt;4&lt;/font&gt;" style="ellipse;whiteSpace=wrap;html=1;aspect=fixed;container=0;" parent="NAWwyWHMbkKftdFxb2z5-181" vertex="1">
          <mxGeometry x="80" y="40" width="80" height="80" as="geometry" />
        </mxCell>
        <mxCell id="NAWwyWHMbkKftdFxb2z5-194" value="&lt;font style=&quot;font-size: 24px;&quot;&gt;5&lt;/font&gt;" style="ellipse;whiteSpace=wrap;html=1;aspect=fixed;container=0;" parent="NAWwyWHMbkKftdFxb2z5-181" vertex="1">
          <mxGeometry x="240" y="40" width="80" height="80" as="geometry" />
        </mxCell>
        <mxCell id="NAWwyWHMbkKftdFxb2z5-195" value="" style="endArrow=classic;html=1;rounded=0;fontSize=24;exitX=1;exitY=0.5;exitDx=0;exitDy=0;entryX=0;entryY=0.5;entryDx=0;entryDy=0;" parent="NAWwyWHMbkKftdFxb2z5-181" source="NAWwyWHMbkKftdFxb2z5-193" target="NAWwyWHMbkKftdFxb2z5-194" edge="1">
          <mxGeometry relative="1" as="geometry">
            <mxPoint x="170" y="79.71000000000004" as="sourcePoint" />
            <mxPoint x="260" y="80" as="targetPoint" />
          </mxGeometry>
        </mxCell>
        <mxCell id="NAWwyWHMbkKftdFxb2z5-196" value="&lt;font style=&quot;font-size: 24px;&quot;&gt;b&lt;/font&gt;" style="edgeLabel;resizable=0;html=1;;align=center;verticalAlign=middle;container=0;" parent="NAWwyWHMbkKftdFxb2z5-195" connectable="0" vertex="1">
          <mxGeometry relative="1" as="geometry" />
        </mxCell>
        <mxCell id="NAWwyWHMbkKftdFxb2z5-197" value="&lt;font style=&quot;font-size: 24px;&quot;&gt;1&lt;/font&gt;" style="ellipse;whiteSpace=wrap;html=1;aspect=fixed;" parent="NAWwyWHMbkKftdFxb2z5-175" vertex="1">
          <mxGeometry x="160" y="80" width="80" height="80" as="geometry" />
        </mxCell>
        <mxCell id="NAWwyWHMbkKftdFxb2z5-198" value="&lt;font style=&quot;font-size: 24px;&quot;&gt;0&lt;/font&gt;" style="ellipse;whiteSpace=wrap;html=1;aspect=fixed;" parent="NAWwyWHMbkKftdFxb2z5-175" vertex="1">
          <mxGeometry y="80" width="80" height="80" as="geometry" />
        </mxCell>
        <mxCell id="NAWwyWHMbkKftdFxb2z5-199" value="" style="endArrow=classic;html=1;rounded=0;fontSize=24;entryX=0;entryY=0.5;entryDx=0;entryDy=0;exitX=1;exitY=0;exitDx=0;exitDy=0;" parent="NAWwyWHMbkKftdFxb2z5-175" source="NAWwyWHMbkKftdFxb2z5-197" target="NAWwyWHMbkKftdFxb2z5-177" edge="1">
          <mxGeometry relative="1" as="geometry">
            <mxPoint x="240" y="40" as="sourcePoint" />
            <mxPoint x="300" y="40" as="targetPoint" />
          </mxGeometry>
        </mxCell>
        <mxCell id="NAWwyWHMbkKftdFxb2z5-200" value="&lt;font style=&quot;font-size: 24px;&quot;&gt;λ&lt;/font&gt;" style="edgeLabel;resizable=0;html=1;;align=center;verticalAlign=middle;" parent="NAWwyWHMbkKftdFxb2z5-199" connectable="0" vertex="1">
          <mxGeometry relative="1" as="geometry" />
        </mxCell>
        <mxCell id="NAWwyWHMbkKftdFxb2z5-201" value="º" style="endArrow=classic;html=1;rounded=0;fontSize=24;entryX=0;entryY=0.5;entryDx=0;entryDy=0;exitX=0.861;exitY=0.911;exitDx=0;exitDy=0;exitPerimeter=0;" parent="NAWwyWHMbkKftdFxb2z5-175" source="NAWwyWHMbkKftdFxb2z5-197" target="NAWwyWHMbkKftdFxb2z5-193" edge="1">
          <mxGeometry relative="1" as="geometry">
            <mxPoint x="240" y="200" as="sourcePoint" />
            <mxPoint x="300" y="200" as="targetPoint" />
          </mxGeometry>
        </mxCell>
        <mxCell id="NAWwyWHMbkKftdFxb2z5-202" value="&lt;font style=&quot;font-size: 24px;&quot;&gt;λ&lt;/font&gt;" style="edgeLabel;resizable=0;html=1;;align=center;verticalAlign=middle;container=0;" parent="NAWwyWHMbkKftdFxb2z5-201" connectable="0" vertex="1">
          <mxGeometry relative="1" as="geometry" />
        </mxCell>
        <mxCell id="NAWwyWHMbkKftdFxb2z5-203" value="" style="endArrow=classic;html=1;rounded=0;fontSize=24;entryX=0;entryY=0.5;entryDx=0;entryDy=0;exitX=1;exitY=0.5;exitDx=0;exitDy=0;" parent="NAWwyWHMbkKftdFxb2z5-175" source="NAWwyWHMbkKftdFxb2z5-198" target="NAWwyWHMbkKftdFxb2z5-197" edge="1">
          <mxGeometry relative="1" as="geometry">
            <mxPoint x="238" y="102" as="sourcePoint" />
            <mxPoint x="330" y="50" as="targetPoint" />
          </mxGeometry>
        </mxCell>
        <mxCell id="NAWwyWHMbkKftdFxb2z5-204" value="&lt;font style=&quot;font-size: 24px;&quot;&gt;λ&lt;/font&gt;" style="edgeLabel;resizable=0;html=1;;align=center;verticalAlign=middle;" parent="NAWwyWHMbkKftdFxb2z5-203" connectable="0" vertex="1">
          <mxGeometry relative="1" as="geometry" />
        </mxCell>
        <mxCell id="NAWwyWHMbkKftdFxb2z5-205" value="&lt;font style=&quot;font-size: 24px;&quot;&gt;8&lt;/font&gt;" style="ellipse;whiteSpace=wrap;html=1;aspect=fixed;" parent="NAWwyWHMbkKftdFxb2z5-175" vertex="1">
          <mxGeometry x="960" y="80" width="80" height="80" as="geometry" />
        </mxCell>
        <mxCell id="NAWwyWHMbkKftdFxb2z5-206" value="" style="endArrow=classic;html=1;rounded=0;fontSize=24;exitX=1;exitY=0.5;exitDx=0;exitDy=0;entryX=0;entryY=1;entryDx=0;entryDy=0;" parent="NAWwyWHMbkKftdFxb2z5-175" source="NAWwyWHMbkKftdFxb2z5-184" target="NAWwyWHMbkKftdFxb2z5-205" edge="1">
          <mxGeometry relative="1" as="geometry">
            <mxPoint x="570" y="210" as="sourcePoint" />
            <mxPoint x="960" y="200" as="targetPoint" />
          </mxGeometry>
        </mxCell>
        <mxCell id="NAWwyWHMbkKftdFxb2z5-207" value="&lt;font style=&quot;font-size: 24px;&quot;&gt;λ&lt;/font&gt;" style="edgeLabel;resizable=0;html=1;;align=center;verticalAlign=middle;container=0;" parent="NAWwyWHMbkKftdFxb2z5-206" connectable="0" vertex="1">
          <mxGeometry relative="1" as="geometry" />
        </mxCell>
        <mxCell id="NAWwyWHMbkKftdFxb2z5-208" value="" style="endArrow=classic;html=1;rounded=0;fontSize=24;exitX=1;exitY=0.5;exitDx=0;exitDy=0;entryX=0;entryY=0;entryDx=0;entryDy=0;" parent="NAWwyWHMbkKftdFxb2z5-175" source="NAWwyWHMbkKftdFxb2z5-178" target="NAWwyWHMbkKftdFxb2z5-205" edge="1">
          <mxGeometry relative="1" as="geometry">
            <mxPoint x="250" y="50" as="sourcePoint" />
            <mxPoint x="640" y="40" as="targetPoint" />
          </mxGeometry>
        </mxCell>
        <mxCell id="NAWwyWHMbkKftdFxb2z5-209" value="&lt;font style=&quot;font-size: 24px;&quot;&gt;λ&lt;/font&gt;" style="edgeLabel;resizable=0;html=1;;align=center;verticalAlign=middle;" parent="NAWwyWHMbkKftdFxb2z5-208" connectable="0" vertex="1">
          <mxGeometry relative="1" as="geometry" />
        </mxCell>
        <mxCell id="NAWwyWHMbkKftdFxb2z5-210" value="" style="group" parent="1" vertex="1" connectable="0">
          <mxGeometry x="1880" y="120" width="560" height="200" as="geometry" />
        </mxCell>
        <mxCell id="NAWwyWHMbkKftdFxb2z5-211" value="&lt;font style=&quot;font-size: 24px;&quot;&gt;11&lt;/font&gt;" style="ellipse;whiteSpace=wrap;html=1;aspect=fixed;container=0;" parent="NAWwyWHMbkKftdFxb2z5-210" vertex="1">
          <mxGeometry x="400" y="120" width="80" height="80" as="geometry" />
        </mxCell>
        <mxCell id="NAWwyWHMbkKftdFxb2z5-212" value="" style="endArrow=classic;html=1;rounded=0;fontSize=24;exitX=1;exitY=0;exitDx=0;exitDy=0;entryX=0;entryY=1;entryDx=0;entryDy=0;" parent="NAWwyWHMbkKftdFxb2z5-210" source="NAWwyWHMbkKftdFxb2z5-214" target="NAWwyWHMbkKftdFxb2z5-219" edge="1">
          <mxGeometry relative="1" as="geometry">
            <mxPoint x="170" y="159.71000000000004" as="sourcePoint" />
            <mxPoint x="260" y="160" as="targetPoint" />
          </mxGeometry>
        </mxCell>
        <mxCell id="NAWwyWHMbkKftdFxb2z5-213" value="&lt;font style=&quot;font-size: 24px;&quot;&gt;b&lt;/font&gt;" style="edgeLabel;resizable=0;html=1;;align=center;verticalAlign=middle;container=0;" parent="NAWwyWHMbkKftdFxb2z5-212" connectable="0" vertex="1">
          <mxGeometry relative="1" as="geometry" />
        </mxCell>
        <mxCell id="NAWwyWHMbkKftdFxb2z5-214" value="&lt;font style=&quot;font-size: 24px;&quot;&gt;9&lt;/font&gt;" style="ellipse;whiteSpace=wrap;html=1;aspect=fixed;container=0;" parent="NAWwyWHMbkKftdFxb2z5-210" vertex="1">
          <mxGeometry x="80" y="120" width="80" height="80" as="geometry" />
        </mxCell>
        <mxCell id="NAWwyWHMbkKftdFxb2z5-219" value="&lt;font style=&quot;font-size: 24px;&quot;&gt;10&lt;/font&gt;" style="ellipse;whiteSpace=wrap;html=1;aspect=fixed;container=0;" parent="NAWwyWHMbkKftdFxb2z5-210" vertex="1">
          <mxGeometry x="240" width="80" height="80" as="geometry" />
        </mxCell>
        <mxCell id="NAWwyWHMbkKftdFxb2z5-220" value="" style="endArrow=classic;html=1;rounded=0;fontSize=24;entryX=0;entryY=0.5;entryDx=0;entryDy=0;exitX=1;exitY=0.5;exitDx=0;exitDy=0;" parent="NAWwyWHMbkKftdFxb2z5-210" source="NAWwyWHMbkKftdFxb2z5-214" target="NAWwyWHMbkKftdFxb2z5-211" edge="1">
          <mxGeometry relative="1" as="geometry">
            <mxPoint x="180" y="159.65999999999997" as="sourcePoint" />
            <mxPoint x="260" y="159.65999999999997" as="targetPoint" />
          </mxGeometry>
        </mxCell>
        <mxCell id="NAWwyWHMbkKftdFxb2z5-221" value="&lt;font style=&quot;font-size: 24px;&quot;&gt;λ&lt;/font&gt;" style="edgeLabel;resizable=0;html=1;;align=center;verticalAlign=middle;container=0;" parent="NAWwyWHMbkKftdFxb2z5-220" connectable="0" vertex="1">
          <mxGeometry relative="1" as="geometry" />
        </mxCell>
        <mxCell id="NAWwyWHMbkKftdFxb2z5-222" value="" style="endArrow=classic;html=1;rounded=0;fontSize=24;entryX=0;entryY=0;entryDx=0;entryDy=0;exitX=1;exitY=1;exitDx=0;exitDy=0;" parent="NAWwyWHMbkKftdFxb2z5-210" source="NAWwyWHMbkKftdFxb2z5-219" target="NAWwyWHMbkKftdFxb2z5-211" edge="1">
          <mxGeometry relative="1" as="geometry">
            <mxPoint x="170" y="170" as="sourcePoint" />
            <mxPoint x="410" y="170" as="targetPoint" />
          </mxGeometry>
        </mxCell>
        <mxCell id="NAWwyWHMbkKftdFxb2z5-223" value="&lt;font style=&quot;font-size: 24px;&quot;&gt;λ&lt;/font&gt;" style="edgeLabel;resizable=0;html=1;;align=center;verticalAlign=middle;container=0;" parent="NAWwyWHMbkKftdFxb2z5-222" connectable="0" vertex="1">
          <mxGeometry relative="1" as="geometry" />
        </mxCell>
        <mxCell id="NAWwyWHMbkKftdFxb2z5-215" value="" style="endArrow=classic;html=1;rounded=0;fontSize=24;entryX=0;entryY=0.5;entryDx=0;entryDy=0;exitX=1;exitY=0.5;exitDx=0;exitDy=0;" parent="1" source="NAWwyWHMbkKftdFxb2z5-205" target="NAWwyWHMbkKftdFxb2z5-214" edge="1">
          <mxGeometry relative="1" as="geometry">
            <mxPoint x="1900" y="280" as="sourcePoint" />
            <mxPoint x="1940" y="280" as="targetPoint" />
          </mxGeometry>
        </mxCell>
        <mxCell id="NAWwyWHMbkKftdFxb2z5-216" value="&lt;font style=&quot;font-size: 24px;&quot;&gt;λ&lt;/font&gt;" style="edgeLabel;resizable=0;html=1;;align=center;verticalAlign=middle;container=0;" parent="NAWwyWHMbkKftdFxb2z5-215" connectable="0" vertex="1">
          <mxGeometry relative="1" as="geometry" />
        </mxCell>
        <mxCell id="NAWwyWHMbkKftdFxb2z5-217" value="" style="endArrow=classic;html=1;rounded=0;fontSize=24;exitX=1;exitY=0.5;exitDx=0;exitDy=0;entryX=0;entryY=0.5;entryDx=0;entryDy=0;" parent="1" source="NAWwyWHMbkKftdFxb2z5-211" edge="1">
          <mxGeometry relative="1" as="geometry">
            <mxPoint x="1890" y="170" as="sourcePoint" />
            <mxPoint x="2440" y="280" as="targetPoint" />
          </mxGeometry>
        </mxCell>
        <mxCell id="NAWwyWHMbkKftdFxb2z5-218" value="&lt;font style=&quot;font-size: 24px;&quot;&gt;λ&lt;/font&gt;" style="edgeLabel;resizable=0;html=1;;align=center;verticalAlign=middle;container=0;" parent="NAWwyWHMbkKftdFxb2z5-217" connectable="0" vertex="1">
          <mxGeometry relative="1" as="geometry" />
        </mxCell>
        <mxCell id="NAWwyWHMbkKftdFxb2z5-259" value="" style="group" parent="1" vertex="1" connectable="0">
          <mxGeometry x="2360" y="160" width="960" height="280" as="geometry" />
        </mxCell>
        <mxCell id="NAWwyWHMbkKftdFxb2z5-260" value="" style="group" parent="NAWwyWHMbkKftdFxb2z5-259" vertex="1" connectable="0">
          <mxGeometry x="320" width="400" height="80" as="geometry" />
        </mxCell>
        <mxCell id="NAWwyWHMbkKftdFxb2z5-261" value="&lt;font style=&quot;font-size: 24px;&quot;&gt;14&lt;/font&gt;" style="ellipse;whiteSpace=wrap;html=1;aspect=fixed;" parent="NAWwyWHMbkKftdFxb2z5-260" vertex="1">
          <mxGeometry x="80" width="80" height="80" as="geometry" />
        </mxCell>
        <mxCell id="NAWwyWHMbkKftdFxb2z5-262" value="&lt;font style=&quot;font-size: 24px;&quot;&gt;15&lt;/font&gt;" style="ellipse;whiteSpace=wrap;html=1;aspect=fixed;" parent="NAWwyWHMbkKftdFxb2z5-260" vertex="1">
          <mxGeometry x="240" width="80" height="80" as="geometry" />
        </mxCell>
        <mxCell id="NAWwyWHMbkKftdFxb2z5-263" value="" style="endArrow=classic;html=1;rounded=0;fontSize=24;exitX=1;exitY=0.5;exitDx=0;exitDy=0;entryX=0;entryY=0.5;entryDx=0;entryDy=0;" parent="NAWwyWHMbkKftdFxb2z5-260" source="NAWwyWHMbkKftdFxb2z5-261" target="NAWwyWHMbkKftdFxb2z5-262" edge="1">
          <mxGeometry relative="1" as="geometry">
            <mxPoint x="170" y="39.71000000000001" as="sourcePoint" />
            <mxPoint x="260" y="40" as="targetPoint" />
          </mxGeometry>
        </mxCell>
        <mxCell id="NAWwyWHMbkKftdFxb2z5-264" value="&lt;font style=&quot;font-size: 24px;&quot;&gt;a&lt;/font&gt;" style="edgeLabel;resizable=0;html=1;;align=center;verticalAlign=middle;" parent="NAWwyWHMbkKftdFxb2z5-263" connectable="0" vertex="1">
          <mxGeometry relative="1" as="geometry" />
        </mxCell>
        <mxCell id="NAWwyWHMbkKftdFxb2z5-265" value="" style="group" parent="NAWwyWHMbkKftdFxb2z5-259" vertex="1" connectable="0">
          <mxGeometry x="320" y="160" width="400" height="80" as="geometry" />
        </mxCell>
        <mxCell id="NAWwyWHMbkKftdFxb2z5-266" value="&lt;font style=&quot;font-size: 24px;&quot;&gt;16&lt;/font&gt;" style="ellipse;whiteSpace=wrap;html=1;aspect=fixed;" parent="NAWwyWHMbkKftdFxb2z5-265" vertex="1">
          <mxGeometry x="80" width="80" height="80" as="geometry" />
        </mxCell>
        <mxCell id="NAWwyWHMbkKftdFxb2z5-267" value="&lt;font style=&quot;font-size: 24px;&quot;&gt;17&lt;/font&gt;" style="ellipse;whiteSpace=wrap;html=1;aspect=fixed;" parent="NAWwyWHMbkKftdFxb2z5-265" vertex="1">
          <mxGeometry x="240" width="80" height="80" as="geometry" />
        </mxCell>
        <mxCell id="NAWwyWHMbkKftdFxb2z5-268" value="" style="endArrow=classic;html=1;rounded=0;fontSize=24;exitX=1;exitY=0.5;exitDx=0;exitDy=0;entryX=0;entryY=0.5;entryDx=0;entryDy=0;" parent="NAWwyWHMbkKftdFxb2z5-265" source="NAWwyWHMbkKftdFxb2z5-266" target="NAWwyWHMbkKftdFxb2z5-267" edge="1">
          <mxGeometry relative="1" as="geometry">
            <mxPoint x="170" y="39.710000000000036" as="sourcePoint" />
            <mxPoint x="260" y="40" as="targetPoint" />
          </mxGeometry>
        </mxCell>
        <mxCell id="NAWwyWHMbkKftdFxb2z5-269" value="&lt;font style=&quot;font-size: 24px;&quot;&gt;b&lt;/font&gt;" style="edgeLabel;resizable=0;html=1;;align=center;verticalAlign=middle;" parent="NAWwyWHMbkKftdFxb2z5-268" connectable="0" vertex="1">
          <mxGeometry relative="1" as="geometry" />
        </mxCell>
        <mxCell id="NAWwyWHMbkKftdFxb2z5-270" value="&lt;font style=&quot;font-size: 24px;&quot;&gt;13&lt;/font&gt;" style="ellipse;whiteSpace=wrap;html=1;aspect=fixed;" parent="NAWwyWHMbkKftdFxb2z5-259" vertex="1">
          <mxGeometry x="240" y="80" width="80" height="80" as="geometry" />
        </mxCell>
        <mxCell id="NAWwyWHMbkKftdFxb2z5-271" value="" style="endArrow=classic;html=1;rounded=0;fontSize=24;entryX=0;entryY=0.5;entryDx=0;entryDy=0;exitX=1;exitY=0;exitDx=0;exitDy=0;" parent="NAWwyWHMbkKftdFxb2z5-259" source="NAWwyWHMbkKftdFxb2z5-270" target="NAWwyWHMbkKftdFxb2z5-261" edge="1">
          <mxGeometry relative="1" as="geometry">
            <mxPoint x="320" y="40" as="sourcePoint" />
            <mxPoint x="380" y="40" as="targetPoint" />
          </mxGeometry>
        </mxCell>
        <mxCell id="NAWwyWHMbkKftdFxb2z5-272" value="&lt;font style=&quot;font-size: 24px;&quot;&gt;λ&lt;/font&gt;" style="edgeLabel;resizable=0;html=1;;align=center;verticalAlign=middle;" parent="NAWwyWHMbkKftdFxb2z5-271" connectable="0" vertex="1">
          <mxGeometry relative="1" as="geometry" />
        </mxCell>
        <mxCell id="NAWwyWHMbkKftdFxb2z5-273" value="" style="endArrow=classic;html=1;rounded=0;fontSize=24;entryX=0;entryY=0.5;entryDx=0;entryDy=0;exitX=1;exitY=1;exitDx=0;exitDy=0;" parent="NAWwyWHMbkKftdFxb2z5-259" source="NAWwyWHMbkKftdFxb2z5-270" target="NAWwyWHMbkKftdFxb2z5-266" edge="1">
          <mxGeometry relative="1" as="geometry">
            <mxPoint x="320" y="200" as="sourcePoint" />
            <mxPoint x="380" y="200" as="targetPoint" />
          </mxGeometry>
        </mxCell>
        <mxCell id="NAWwyWHMbkKftdFxb2z5-274" value="&lt;font style=&quot;font-size: 24px;&quot;&gt;λ&lt;/font&gt;" style="edgeLabel;resizable=0;html=1;;align=center;verticalAlign=middle;" parent="NAWwyWHMbkKftdFxb2z5-273" connectable="0" vertex="1">
          <mxGeometry relative="1" as="geometry" />
        </mxCell>
        <mxCell id="NAWwyWHMbkKftdFxb2z5-275" value="&lt;font style=&quot;font-size: 24px;&quot;&gt;18&lt;/font&gt;" style="ellipse;whiteSpace=wrap;html=1;aspect=fixed;" parent="NAWwyWHMbkKftdFxb2z5-259" vertex="1">
          <mxGeometry x="720" y="80" width="80" height="80" as="geometry" />
        </mxCell>
        <mxCell id="NAWwyWHMbkKftdFxb2z5-276" value="" style="endArrow=classic;html=1;rounded=0;fontSize=24;exitX=1;exitY=0.5;exitDx=0;exitDy=0;entryX=0;entryY=0;entryDx=0;entryDy=0;" parent="NAWwyWHMbkKftdFxb2z5-259" source="NAWwyWHMbkKftdFxb2z5-262" target="NAWwyWHMbkKftdFxb2z5-275" edge="1">
          <mxGeometry relative="1" as="geometry">
            <mxPoint x="330" y="50" as="sourcePoint" />
            <mxPoint x="720" y="40" as="targetPoint" />
          </mxGeometry>
        </mxCell>
        <mxCell id="NAWwyWHMbkKftdFxb2z5-277" value="&lt;font style=&quot;font-size: 24px;&quot;&gt;λ&lt;/font&gt;" style="edgeLabel;resizable=0;html=1;;align=center;verticalAlign=middle;" parent="NAWwyWHMbkKftdFxb2z5-276" connectable="0" vertex="1">
          <mxGeometry relative="1" as="geometry" />
        </mxCell>
        <mxCell id="NAWwyWHMbkKftdFxb2z5-278" value="" style="endArrow=classic;html=1;rounded=0;fontSize=24;exitX=1;exitY=0.5;exitDx=0;exitDy=0;entryX=0;entryY=1;entryDx=0;entryDy=0;" parent="NAWwyWHMbkKftdFxb2z5-259" source="NAWwyWHMbkKftdFxb2z5-267" target="NAWwyWHMbkKftdFxb2z5-275" edge="1">
          <mxGeometry relative="1" as="geometry">
            <mxPoint x="330" y="210" as="sourcePoint" />
            <mxPoint x="720" y="200" as="targetPoint" />
          </mxGeometry>
        </mxCell>
        <mxCell id="NAWwyWHMbkKftdFxb2z5-279" value="&lt;font style=&quot;font-size: 24px;&quot;&gt;λ&lt;/font&gt;" style="edgeLabel;resizable=0;html=1;;align=center;verticalAlign=middle;" parent="NAWwyWHMbkKftdFxb2z5-278" connectable="0" vertex="1">
          <mxGeometry relative="1" as="geometry" />
        </mxCell>
        <mxCell id="NAWwyWHMbkKftdFxb2z5-280" value="" style="endArrow=classic;html=1;rounded=0;fontSize=24;exitX=1;exitY=0.5;exitDx=0;exitDy=0;entryX=0;entryY=0.5;entryDx=0;entryDy=0;" parent="NAWwyWHMbkKftdFxb2z5-259" source="NAWwyWHMbkKftdFxb2z5-275" target="NAWwyWHMbkKftdFxb2z5-282" edge="1">
          <mxGeometry relative="1" as="geometry">
            <mxPoint x="570" y="-230" as="sourcePoint" />
            <mxPoint x="880" y="120" as="targetPoint" />
          </mxGeometry>
        </mxCell>
        <mxCell id="NAWwyWHMbkKftdFxb2z5-281" value="&lt;font style=&quot;font-size: 24px;&quot;&gt;λ&lt;/font&gt;" style="edgeLabel;resizable=0;html=1;;align=center;verticalAlign=middle;container=0;" parent="NAWwyWHMbkKftdFxb2z5-280" connectable="0" vertex="1">
          <mxGeometry relative="1" as="geometry" />
        </mxCell>
        <mxCell id="NAWwyWHMbkKftdFxb2z5-282" value="&lt;font style=&quot;font-size: 24px;&quot;&gt;19&lt;/font&gt;" style="ellipse;whiteSpace=wrap;html=1;aspect=fixed;" parent="NAWwyWHMbkKftdFxb2z5-259" vertex="1">
          <mxGeometry x="880" y="80" width="80" height="80" as="geometry" />
        </mxCell>
        <mxCell id="NAWwyWHMbkKftdFxb2z5-283" value="&lt;font style=&quot;font-size: 24px;&quot;&gt;12&lt;/font&gt;" style="ellipse;whiteSpace=wrap;html=1;aspect=fixed;" parent="NAWwyWHMbkKftdFxb2z5-259" vertex="1">
          <mxGeometry x="80" y="80" width="80" height="80" as="geometry" />
        </mxCell>
        <mxCell id="NAWwyWHMbkKftdFxb2z5-284" value="" style="endArrow=classic;html=1;rounded=0;fontSize=24;entryX=0;entryY=0.5;entryDx=0;entryDy=0;exitX=1;exitY=0.5;exitDx=0;exitDy=0;" parent="NAWwyWHMbkKftdFxb2z5-259" source="NAWwyWHMbkKftdFxb2z5-283" target="NAWwyWHMbkKftdFxb2z5-270" edge="1">
          <mxGeometry relative="1" as="geometry">
            <mxPoint x="318" y="102" as="sourcePoint" />
            <mxPoint x="410" y="50" as="targetPoint" />
          </mxGeometry>
        </mxCell>
        <mxCell id="NAWwyWHMbkKftdFxb2z5-285" value="&lt;font style=&quot;font-size: 24px;&quot;&gt;λ&lt;/font&gt;" style="edgeLabel;resizable=0;html=1;;align=center;verticalAlign=middle;" parent="NAWwyWHMbkKftdFxb2z5-284" connectable="0" vertex="1">
          <mxGeometry relative="1" as="geometry" />
        </mxCell>
        <mxCell id="NAWwyWHMbkKftdFxb2z5-286" value="" style="endArrow=classic;html=1;rounded=0;fontSize=24;entryX=0.5;entryY=1;entryDx=0;entryDy=0;exitX=0.5;exitY=1;exitDx=0;exitDy=0;" parent="NAWwyWHMbkKftdFxb2z5-259" source="NAWwyWHMbkKftdFxb2z5-283" target="NAWwyWHMbkKftdFxb2z5-282" edge="1">
          <mxGeometry relative="1" as="geometry">
            <mxPoint x="170" y="130" as="sourcePoint" />
            <mxPoint x="250" y="130" as="targetPoint" />
            <Array as="points">
              <mxPoint x="120" y="280" />
              <mxPoint x="520" y="280" />
              <mxPoint x="920" y="280" />
            </Array>
          </mxGeometry>
        </mxCell>
        <mxCell id="NAWwyWHMbkKftdFxb2z5-287" value="&lt;font style=&quot;font-size: 24px;&quot;&gt;λ&lt;/font&gt;" style="edgeLabel;resizable=0;html=1;;align=center;verticalAlign=middle;" parent="NAWwyWHMbkKftdFxb2z5-286" connectable="0" vertex="1">
          <mxGeometry relative="1" as="geometry" />
        </mxCell>
        <mxCell id="COydpdV_sPNm9XgrfEWc-1" value="" style="endArrow=classic;html=1;rounded=0;fontSize=24;entryX=0.5;entryY=0;entryDx=0;entryDy=0;exitX=0.5;exitY=0;exitDx=0;exitDy=0;" edge="1" parent="NAWwyWHMbkKftdFxb2z5-259" source="NAWwyWHMbkKftdFxb2z5-275" target="NAWwyWHMbkKftdFxb2z5-270">
          <mxGeometry relative="1" as="geometry">
            <mxPoint x="130" y="170" as="sourcePoint" />
            <mxPoint x="930" y="170" as="targetPoint" />
            <Array as="points">
              <mxPoint x="760" y="-40" />
              <mxPoint x="280" y="-40" />
            </Array>
          </mxGeometry>
        </mxCell>
        <mxCell id="COydpdV_sPNm9XgrfEWc-2" value="&lt;font style=&quot;font-size: 24px;&quot;&gt;λ&lt;/font&gt;" style="edgeLabel;resizable=0;html=1;;align=center;verticalAlign=middle;" connectable="0" vertex="1" parent="COydpdV_sPNm9XgrfEWc-1">
          <mxGeometry relative="1" as="geometry" />
        </mxCell>
        <mxCell id="COydpdV_sPNm9XgrfEWc-4" value="" style="group" vertex="1" connectable="0" parent="1">
          <mxGeometry x="2000" y="720" width="400" height="80" as="geometry" />
        </mxCell>
        <mxCell id="COydpdV_sPNm9XgrfEWc-5" value="&lt;font style=&quot;font-size: 24px;&quot;&gt;A&lt;/font&gt;" style="ellipse;whiteSpace=wrap;html=1;aspect=fixed;" vertex="1" parent="COydpdV_sPNm9XgrfEWc-4">
          <mxGeometry x="80" width="80" height="80" as="geometry" />
        </mxCell>
        <mxCell id="COydpdV_sPNm9XgrfEWc-6" value="&lt;font style=&quot;font-size: 24px;&quot;&gt;B*&lt;/font&gt;" style="ellipse;whiteSpace=wrap;html=1;aspect=fixed;" vertex="1" parent="1">
          <mxGeometry x="2240" y="640" width="80" height="80" as="geometry" />
        </mxCell>
        <mxCell id="COydpdV_sPNm9XgrfEWc-9" value="" style="endArrow=classic;html=1;rounded=0;fontSize=24;exitX=1;exitY=0.5;exitDx=0;exitDy=0;entryX=0;entryY=0.5;entryDx=0;entryDy=0;" edge="1" parent="1" source="COydpdV_sPNm9XgrfEWc-5" target="COydpdV_sPNm9XgrfEWc-6">
          <mxGeometry relative="1" as="geometry">
            <mxPoint x="2200" y="759.71" as="sourcePoint" />
            <mxPoint x="2290" y="760" as="targetPoint" />
          </mxGeometry>
        </mxCell>
        <mxCell id="COydpdV_sPNm9XgrfEWc-10" value="&lt;font style=&quot;font-size: 24px;&quot;&gt;a&lt;/font&gt;" style="edgeLabel;resizable=0;html=1;;align=center;verticalAlign=middle;" connectable="0" vertex="1" parent="COydpdV_sPNm9XgrfEWc-9">
          <mxGeometry relative="1" as="geometry" />
        </mxCell>
        <mxCell id="COydpdV_sPNm9XgrfEWc-13" value="&lt;font style=&quot;font-size: 24px;&quot;&gt;C*&lt;/font&gt;" style="ellipse;whiteSpace=wrap;html=1;aspect=fixed;" vertex="1" parent="1">
          <mxGeometry x="2241" y="800" width="80" height="80" as="geometry" />
        </mxCell>
        <mxCell id="COydpdV_sPNm9XgrfEWc-14" value="" style="endArrow=classic;html=1;rounded=0;fontSize=24;exitX=1;exitY=0.5;exitDx=0;exitDy=0;entryX=0;entryY=0.5;entryDx=0;entryDy=0;" edge="1" parent="1" source="COydpdV_sPNm9XgrfEWc-5" target="COydpdV_sPNm9XgrfEWc-13">
          <mxGeometry relative="1" as="geometry">
            <mxPoint x="2170" y="770" as="sourcePoint" />
            <mxPoint x="2250" y="690" as="targetPoint" />
          </mxGeometry>
        </mxCell>
        <mxCell id="COydpdV_sPNm9XgrfEWc-15" value="&lt;font style=&quot;font-size: 24px;&quot;&gt;b&lt;/font&gt;" style="edgeLabel;resizable=0;html=1;;align=center;verticalAlign=middle;" connectable="0" vertex="1" parent="COydpdV_sPNm9XgrfEWc-14">
          <mxGeometry relative="1" as="geometry" />
        </mxCell>
        <mxCell id="COydpdV_sPNm9XgrfEWc-17" value="&lt;font style=&quot;font-size: 24px;&quot;&gt;D*&lt;/font&gt;" style="ellipse;whiteSpace=wrap;html=1;aspect=fixed;" vertex="1" parent="1">
          <mxGeometry x="2400" y="720" width="80" height="80" as="geometry" />
        </mxCell>
        <mxCell id="COydpdV_sPNm9XgrfEWc-18" value="&lt;font style=&quot;font-size: 24px;&quot;&gt;F*&lt;/font&gt;" style="ellipse;whiteSpace=wrap;html=1;aspect=fixed;" vertex="1" parent="1">
          <mxGeometry x="2400" y="880" width="80" height="80" as="geometry" />
        </mxCell>
        <mxCell id="COydpdV_sPNm9XgrfEWc-19" value="&lt;font style=&quot;font-size: 24px;&quot;&gt;E*&lt;/font&gt;" style="ellipse;whiteSpace=wrap;html=1;aspect=fixed;" vertex="1" parent="1">
          <mxGeometry x="2401" y="560" width="80" height="80" as="geometry" />
        </mxCell>
        <mxCell id="COydpdV_sPNm9XgrfEWc-20" value="&lt;font style=&quot;font-size: 24px;&quot;&gt;G*&lt;/font&gt;" style="ellipse;whiteSpace=wrap;html=1;aspect=fixed;" vertex="1" parent="1">
          <mxGeometry x="2560" y="720" width="80" height="80" as="geometry" />
        </mxCell>
        <mxCell id="COydpdV_sPNm9XgrfEWc-21" value="" style="endArrow=classic;html=1;rounded=0;fontSize=24;exitX=1;exitY=0.5;exitDx=0;exitDy=0;entryX=0;entryY=0.5;entryDx=0;entryDy=0;" edge="1" parent="1" source="COydpdV_sPNm9XgrfEWc-6" target="COydpdV_sPNm9XgrfEWc-17">
          <mxGeometry relative="1" as="geometry">
            <mxPoint x="2158" y="742" as="sourcePoint" />
            <mxPoint x="2250" y="690" as="targetPoint" />
          </mxGeometry>
        </mxCell>
        <mxCell id="COydpdV_sPNm9XgrfEWc-22" value="&lt;font style=&quot;font-size: 24px;&quot;&gt;a&lt;/font&gt;" style="edgeLabel;resizable=0;html=1;;align=center;verticalAlign=middle;" connectable="0" vertex="1" parent="COydpdV_sPNm9XgrfEWc-21">
          <mxGeometry relative="1" as="geometry" />
        </mxCell>
        <mxCell id="COydpdV_sPNm9XgrfEWc-23" value="" style="endArrow=classic;html=1;rounded=0;fontSize=24;exitX=1;exitY=0.5;exitDx=0;exitDy=0;entryX=0;entryY=0.5;entryDx=0;entryDy=0;" edge="1" parent="1" source="COydpdV_sPNm9XgrfEWc-13" target="COydpdV_sPNm9XgrfEWc-17">
          <mxGeometry relative="1" as="geometry">
            <mxPoint x="2348" y="876" as="sourcePoint" />
            <mxPoint x="2370" y="780" as="targetPoint" />
          </mxGeometry>
        </mxCell>
        <mxCell id="COydpdV_sPNm9XgrfEWc-24" value="&lt;font style=&quot;font-size: 24px;&quot;&gt;a&lt;/font&gt;" style="edgeLabel;resizable=0;html=1;;align=center;verticalAlign=middle;" connectable="0" vertex="1" parent="COydpdV_sPNm9XgrfEWc-23">
          <mxGeometry relative="1" as="geometry" />
        </mxCell>
        <mxCell id="COydpdV_sPNm9XgrfEWc-25" value="" style="endArrow=classic;html=1;rounded=0;fontSize=24;exitX=1;exitY=0.5;exitDx=0;exitDy=0;entryX=0;entryY=0.5;entryDx=0;entryDy=0;" edge="1" parent="1" source="COydpdV_sPNm9XgrfEWc-13" target="COydpdV_sPNm9XgrfEWc-18">
          <mxGeometry relative="1" as="geometry">
            <mxPoint x="2158" y="798" as="sourcePoint" />
            <mxPoint x="2250" y="850" as="targetPoint" />
          </mxGeometry>
        </mxCell>
        <mxCell id="COydpdV_sPNm9XgrfEWc-26" value="&lt;font style=&quot;font-size: 24px;&quot;&gt;b&lt;/font&gt;" style="edgeLabel;resizable=0;html=1;;align=center;verticalAlign=middle;" connectable="0" vertex="1" parent="COydpdV_sPNm9XgrfEWc-25">
          <mxGeometry relative="1" as="geometry" />
        </mxCell>
        <mxCell id="COydpdV_sPNm9XgrfEWc-28" value="" style="endArrow=classic;html=1;rounded=0;fontSize=24;exitX=1;exitY=0.5;exitDx=0;exitDy=0;entryX=0;entryY=0.5;entryDx=0;entryDy=0;" edge="1" parent="1" source="COydpdV_sPNm9XgrfEWc-6" target="COydpdV_sPNm9XgrfEWc-19">
          <mxGeometry relative="1" as="geometry">
            <mxPoint x="2170" y="770" as="sourcePoint" />
            <mxPoint x="2250" y="850" as="targetPoint" />
          </mxGeometry>
        </mxCell>
        <mxCell id="COydpdV_sPNm9XgrfEWc-29" value="&lt;font style=&quot;font-size: 24px;&quot;&gt;b&lt;/font&gt;" style="edgeLabel;resizable=0;html=1;;align=center;verticalAlign=middle;" connectable="0" vertex="1" parent="COydpdV_sPNm9XgrfEWc-28">
          <mxGeometry relative="1" as="geometry" />
        </mxCell>
        <mxCell id="COydpdV_sPNm9XgrfEWc-30" value="" style="endArrow=classic;html=1;rounded=0;fontSize=24;exitX=1;exitY=0;exitDx=0;exitDy=0;entryX=0;entryY=0;entryDx=0;entryDy=0;" edge="1" parent="1" source="COydpdV_sPNm9XgrfEWc-17" target="COydpdV_sPNm9XgrfEWc-20">
          <mxGeometry relative="1" as="geometry">
            <mxPoint x="2330" y="850" as="sourcePoint" />
            <mxPoint x="2410" y="930" as="targetPoint" />
          </mxGeometry>
        </mxCell>
        <mxCell id="COydpdV_sPNm9XgrfEWc-31" value="&lt;font style=&quot;font-size: 24px;&quot;&gt;b&lt;/font&gt;" style="edgeLabel;resizable=0;html=1;;align=center;verticalAlign=middle;" connectable="0" vertex="1" parent="COydpdV_sPNm9XgrfEWc-30">
          <mxGeometry relative="1" as="geometry" />
        </mxCell>
        <mxCell id="COydpdV_sPNm9XgrfEWc-33" value="" style="endArrow=classic;html=1;rounded=0;fontSize=24;exitX=1;exitY=0;exitDx=0;exitDy=0;entryX=0;entryY=0;entryDx=0;entryDy=0;" edge="1" parent="1" source="COydpdV_sPNm9XgrfEWc-17" target="COydpdV_sPNm9XgrfEWc-17">
          <mxGeometry relative="1" as="geometry">
            <mxPoint x="2480.0042712474797" y="719.9957287525199" as="sourcePoint" />
            <mxPoint x="2423.4357287525204" y="719.9957287525203" as="targetPoint" />
            <Array as="points">
              <mxPoint x="2440" y="680" />
            </Array>
          </mxGeometry>
        </mxCell>
        <mxCell id="COydpdV_sPNm9XgrfEWc-34" value="&lt;font style=&quot;font-size: 24px;&quot;&gt;a&lt;/font&gt;" style="edgeLabel;resizable=0;html=1;;align=center;verticalAlign=middle;" connectable="0" vertex="1" parent="COydpdV_sPNm9XgrfEWc-33">
          <mxGeometry relative="1" as="geometry" />
        </mxCell>
        <mxCell id="COydpdV_sPNm9XgrfEWc-35" value="" style="endArrow=classic;html=1;rounded=0;fontSize=24;exitX=1;exitY=0.5;exitDx=0;exitDy=0;entryX=0;entryY=0.5;entryDx=0;entryDy=0;" edge="1" parent="1" source="COydpdV_sPNm9XgrfEWc-19" target="COydpdV_sPNm9XgrfEWc-20">
          <mxGeometry relative="1" as="geometry">
            <mxPoint x="2490" y="770" as="sourcePoint" />
            <mxPoint x="2550" y="730" as="targetPoint" />
          </mxGeometry>
        </mxCell>
        <mxCell id="COydpdV_sPNm9XgrfEWc-36" value="&lt;font style=&quot;font-size: 24px;&quot;&gt;b&lt;/font&gt;" style="edgeLabel;resizable=0;html=1;;align=center;verticalAlign=middle;" connectable="0" vertex="1" parent="COydpdV_sPNm9XgrfEWc-35">
          <mxGeometry relative="1" as="geometry" />
        </mxCell>
        <mxCell id="COydpdV_sPNm9XgrfEWc-37" value="" style="endArrow=classic;html=1;rounded=0;fontSize=24;exitX=0.5;exitY=1;exitDx=0;exitDy=0;entryX=0.5;entryY=0;entryDx=0;entryDy=0;" edge="1" parent="1" source="COydpdV_sPNm9XgrfEWc-19" target="COydpdV_sPNm9XgrfEWc-17">
          <mxGeometry relative="1" as="geometry">
            <mxPoint x="2478" y="742" as="sourcePoint" />
            <mxPoint x="2422" y="742" as="targetPoint" />
            <Array as="points" />
          </mxGeometry>
        </mxCell>
        <mxCell id="COydpdV_sPNm9XgrfEWc-38" value="&lt;font style=&quot;font-size: 24px;&quot;&gt;a&lt;/font&gt;" style="edgeLabel;resizable=0;html=1;;align=center;verticalAlign=middle;" connectable="0" vertex="1" parent="COydpdV_sPNm9XgrfEWc-37">
          <mxGeometry relative="1" as="geometry" />
        </mxCell>
        <mxCell id="COydpdV_sPNm9XgrfEWc-39" value="" style="endArrow=classic;html=1;rounded=0;fontSize=24;exitX=0.5;exitY=0;exitDx=0;exitDy=0;entryX=0.5;entryY=1;entryDx=0;entryDy=0;" edge="1" parent="1" source="COydpdV_sPNm9XgrfEWc-18" target="COydpdV_sPNm9XgrfEWc-17">
          <mxGeometry relative="1" as="geometry">
            <mxPoint x="2330" y="850" as="sourcePoint" />
            <mxPoint x="2410" y="770" as="targetPoint" />
          </mxGeometry>
        </mxCell>
        <mxCell id="COydpdV_sPNm9XgrfEWc-40" value="&lt;font style=&quot;font-size: 24px;&quot;&gt;a&lt;/font&gt;" style="edgeLabel;resizable=0;html=1;;align=center;verticalAlign=middle;" connectable="0" vertex="1" parent="COydpdV_sPNm9XgrfEWc-39">
          <mxGeometry relative="1" as="geometry" />
        </mxCell>
        <mxCell id="COydpdV_sPNm9XgrfEWc-41" value="" style="endArrow=classic;html=1;rounded=0;fontSize=24;exitX=0;exitY=1;exitDx=0;exitDy=0;entryX=1;entryY=1;entryDx=0;entryDy=0;" edge="1" parent="1" source="COydpdV_sPNm9XgrfEWc-18" target="COydpdV_sPNm9XgrfEWc-18">
          <mxGeometry relative="1" as="geometry">
            <mxPoint x="2330" y="850" as="sourcePoint" />
            <mxPoint x="2410" y="930" as="targetPoint" />
            <Array as="points">
              <mxPoint x="2440" y="1000" />
            </Array>
          </mxGeometry>
        </mxCell>
        <mxCell id="COydpdV_sPNm9XgrfEWc-42" value="&lt;font style=&quot;font-size: 24px;&quot;&gt;b&lt;/font&gt;" style="edgeLabel;resizable=0;html=1;;align=center;verticalAlign=middle;" connectable="0" vertex="1" parent="COydpdV_sPNm9XgrfEWc-41">
          <mxGeometry relative="1" as="geometry" />
        </mxCell>
        <mxCell id="COydpdV_sPNm9XgrfEWc-43" value="" style="endArrow=classic;html=1;rounded=0;fontSize=24;exitX=0;exitY=1;exitDx=0;exitDy=0;entryX=1;entryY=1;entryDx=0;entryDy=0;" edge="1" parent="1" source="COydpdV_sPNm9XgrfEWc-20" target="COydpdV_sPNm9XgrfEWc-17">
          <mxGeometry relative="1" as="geometry">
            <mxPoint x="2170" y="770" as="sourcePoint" />
            <mxPoint x="2250" y="690" as="targetPoint" />
          </mxGeometry>
        </mxCell>
        <mxCell id="COydpdV_sPNm9XgrfEWc-44" value="&lt;font style=&quot;font-size: 24px;&quot;&gt;a&lt;/font&gt;" style="edgeLabel;resizable=0;html=1;;align=center;verticalAlign=middle;" connectable="0" vertex="1" parent="COydpdV_sPNm9XgrfEWc-43">
          <mxGeometry relative="1" as="geometry" />
        </mxCell>
        <mxCell id="COydpdV_sPNm9XgrfEWc-45" value="" style="endArrow=classic;html=1;rounded=0;fontSize=24;exitX=0;exitY=1;exitDx=0;exitDy=0;entryX=1;entryY=1;entryDx=0;entryDy=0;" edge="1" parent="1" source="COydpdV_sPNm9XgrfEWc-20" target="COydpdV_sPNm9XgrfEWc-20">
          <mxGeometry relative="1" as="geometry">
            <mxPoint x="2422" y="958" as="sourcePoint" />
            <mxPoint x="2478" y="958" as="targetPoint" />
            <Array as="points">
              <mxPoint x="2600" y="840" />
            </Array>
          </mxGeometry>
        </mxCell>
        <mxCell id="COydpdV_sPNm9XgrfEWc-46" value="&lt;font style=&quot;font-size: 24px;&quot;&gt;b&lt;/font&gt;" style="edgeLabel;resizable=0;html=1;;align=center;verticalAlign=middle;" connectable="0" vertex="1" parent="COydpdV_sPNm9XgrfEWc-45">
          <mxGeometry relative="1" as="geometry" />
        </mxCell>
        <mxCell id="COydpdV_sPNm9XgrfEWc-47" value="&lt;font style=&quot;font-size: 24px;&quot;&gt;A&lt;/font&gt;" style="ellipse;whiteSpace=wrap;html=1;aspect=fixed;" vertex="1" parent="1">
          <mxGeometry x="2080" y="1240" width="80" height="80" as="geometry" />
        </mxCell>
        <mxCell id="COydpdV_sPNm9XgrfEWc-48" value="&lt;font style=&quot;font-size: 24px;&quot;&gt;B*&lt;/font&gt;" style="ellipse;whiteSpace=wrap;html=1;aspect=fixed;" vertex="1" parent="1">
          <mxGeometry x="2240" y="1160" width="80" height="80" as="geometry" />
        </mxCell>
        <mxCell id="COydpdV_sPNm9XgrfEWc-49" value="" style="endArrow=classic;html=1;rounded=0;fontSize=24;exitX=1;exitY=0.5;exitDx=0;exitDy=0;entryX=0;entryY=0.5;entryDx=0;entryDy=0;" edge="1" parent="1" source="COydpdV_sPNm9XgrfEWc-47" target="COydpdV_sPNm9XgrfEWc-48">
          <mxGeometry relative="1" as="geometry">
            <mxPoint x="2170" y="770" as="sourcePoint" />
            <mxPoint x="2250" y="690" as="targetPoint" />
          </mxGeometry>
        </mxCell>
        <mxCell id="COydpdV_sPNm9XgrfEWc-50" value="&lt;font style=&quot;font-size: 24px;&quot;&gt;a&lt;/font&gt;" style="edgeLabel;resizable=0;html=1;;align=center;verticalAlign=middle;" connectable="0" vertex="1" parent="COydpdV_sPNm9XgrfEWc-49">
          <mxGeometry relative="1" as="geometry" />
        </mxCell>
        <mxCell id="COydpdV_sPNm9XgrfEWc-51" value="&lt;font style=&quot;font-size: 24px;&quot;&gt;C*&lt;/font&gt;" style="ellipse;whiteSpace=wrap;html=1;aspect=fixed;" vertex="1" parent="1">
          <mxGeometry x="2240" y="1320" width="80" height="80" as="geometry" />
        </mxCell>
        <mxCell id="COydpdV_sPNm9XgrfEWc-52" value="" style="endArrow=classic;html=1;rounded=0;fontSize=24;exitX=1;exitY=0.5;exitDx=0;exitDy=0;entryX=0;entryY=0.5;entryDx=0;entryDy=0;" edge="1" parent="1" source="COydpdV_sPNm9XgrfEWc-47" target="COydpdV_sPNm9XgrfEWc-51">
          <mxGeometry relative="1" as="geometry">
            <mxPoint x="2170" y="770" as="sourcePoint" />
            <mxPoint x="2251" y="850" as="targetPoint" />
          </mxGeometry>
        </mxCell>
        <mxCell id="COydpdV_sPNm9XgrfEWc-53" value="&lt;font style=&quot;font-size: 24px;&quot;&gt;b&lt;/font&gt;" style="edgeLabel;resizable=0;html=1;;align=center;verticalAlign=middle;" connectable="0" vertex="1" parent="COydpdV_sPNm9XgrfEWc-52">
          <mxGeometry relative="1" as="geometry" />
        </mxCell>
        <mxCell id="COydpdV_sPNm9XgrfEWc-54" value="&lt;font style=&quot;font-size: 24px;&quot;&gt;D*&lt;/font&gt;" style="ellipse;whiteSpace=wrap;html=1;aspect=fixed;" vertex="1" parent="1">
          <mxGeometry x="2401" y="1240" width="80" height="80" as="geometry" />
        </mxCell>
        <mxCell id="COydpdV_sPNm9XgrfEWc-55" value="" style="endArrow=classic;html=1;rounded=0;fontSize=24;exitX=1;exitY=0.5;exitDx=0;exitDy=0;entryX=0;entryY=0.5;entryDx=0;entryDy=0;" edge="1" parent="1" source="COydpdV_sPNm9XgrfEWc-48" target="COydpdV_sPNm9XgrfEWc-54">
          <mxGeometry relative="1" as="geometry">
            <mxPoint x="2170" y="1290" as="sourcePoint" />
            <mxPoint x="2250" y="1210" as="targetPoint" />
          </mxGeometry>
        </mxCell>
        <mxCell id="COydpdV_sPNm9XgrfEWc-56" value="&lt;font style=&quot;font-size: 24px;&quot;&gt;a&lt;/font&gt;&lt;div&gt;&lt;font style=&quot;font-size: 24px;&quot;&gt;b&lt;/font&gt;&lt;/div&gt;" style="edgeLabel;resizable=0;html=1;;align=center;verticalAlign=middle;" connectable="0" vertex="1" parent="COydpdV_sPNm9XgrfEWc-55">
          <mxGeometry relative="1" as="geometry" />
        </mxCell>
        <mxCell id="COydpdV_sPNm9XgrfEWc-59" value="" style="endArrow=classic;html=1;rounded=0;fontSize=24;exitX=1;exitY=0.5;exitDx=0;exitDy=0;entryX=0;entryY=0.5;entryDx=0;entryDy=0;" edge="1" parent="1" source="COydpdV_sPNm9XgrfEWc-51" target="COydpdV_sPNm9XgrfEWc-54">
          <mxGeometry relative="1" as="geometry">
            <mxPoint x="2170" y="1290" as="sourcePoint" />
            <mxPoint x="2250" y="1210" as="targetPoint" />
          </mxGeometry>
        </mxCell>
        <mxCell id="COydpdV_sPNm9XgrfEWc-60" value="&lt;font style=&quot;font-size: 24px;&quot;&gt;a&lt;/font&gt;" style="edgeLabel;resizable=0;html=1;;align=center;verticalAlign=middle;" connectable="0" vertex="1" parent="COydpdV_sPNm9XgrfEWc-59">
          <mxGeometry relative="1" as="geometry" />
        </mxCell>
        <mxCell id="COydpdV_sPNm9XgrfEWc-61" value="" style="endArrow=classic;html=1;rounded=0;fontSize=24;exitX=0;exitY=1;exitDx=0;exitDy=0;entryX=1;entryY=1;entryDx=0;entryDy=0;" edge="1" parent="1" source="COydpdV_sPNm9XgrfEWc-51" target="COydpdV_sPNm9XgrfEWc-51">
          <mxGeometry relative="1" as="geometry">
            <mxPoint x="2422" y="958" as="sourcePoint" />
            <mxPoint x="2478" y="958" as="targetPoint" />
            <Array as="points">
              <mxPoint x="2280" y="1440" />
            </Array>
          </mxGeometry>
        </mxCell>
        <mxCell id="COydpdV_sPNm9XgrfEWc-62" value="&lt;font style=&quot;font-size: 24px;&quot;&gt;b&lt;/font&gt;" style="edgeLabel;resizable=0;html=1;;align=center;verticalAlign=middle;" connectable="0" vertex="1" parent="COydpdV_sPNm9XgrfEWc-61">
          <mxGeometry relative="1" as="geometry" />
        </mxCell>
        <mxCell id="COydpdV_sPNm9XgrfEWc-63" value="" style="endArrow=classic;html=1;rounded=0;fontSize=24;exitX=0;exitY=1;exitDx=0;exitDy=0;entryX=1;entryY=1;entryDx=0;entryDy=0;" edge="1" parent="1" source="COydpdV_sPNm9XgrfEWc-54" target="COydpdV_sPNm9XgrfEWc-54">
          <mxGeometry relative="1" as="geometry">
            <mxPoint x="2330" y="1210" as="sourcePoint" />
            <mxPoint x="2411" y="1290" as="targetPoint" />
            <Array as="points">
              <mxPoint x="2440" y="1360" />
            </Array>
          </mxGeometry>
        </mxCell>
        <mxCell id="COydpdV_sPNm9XgrfEWc-64" value="&lt;font style=&quot;font-size: 24px;&quot;&gt;a&lt;/font&gt;&lt;div&gt;&lt;font style=&quot;font-size: 24px;&quot;&gt;b&lt;/font&gt;&lt;/div&gt;" style="edgeLabel;resizable=0;html=1;;align=center;verticalAlign=middle;" connectable="0" vertex="1" parent="COydpdV_sPNm9XgrfEWc-63">
          <mxGeometry relative="1" as="geometry" />
        </mxCell>
        <mxCell id="COydpdV_sPNm9XgrfEWc-65" value="&lt;font style=&quot;font-size: 24px;&quot;&gt;A&lt;/font&gt;" style="ellipse;whiteSpace=wrap;html=1;aspect=fixed;" vertex="1" parent="1">
          <mxGeometry x="2520" y="1480" width="80" height="80" as="geometry" />
        </mxCell>
        <mxCell id="COydpdV_sPNm9XgrfEWc-66" value="&lt;font style=&quot;font-size: 24px;&quot;&gt;B*&lt;/font&gt;" style="ellipse;whiteSpace=wrap;html=1;aspect=fixed;" vertex="1" parent="1">
          <mxGeometry x="2680" y="1400" width="80" height="80" as="geometry" />
        </mxCell>
        <mxCell id="COydpdV_sPNm9XgrfEWc-67" value="" style="endArrow=classic;html=1;rounded=0;fontSize=24;exitX=1;exitY=0.5;exitDx=0;exitDy=0;entryX=0;entryY=0.5;entryDx=0;entryDy=0;" edge="1" parent="1" source="COydpdV_sPNm9XgrfEWc-65" target="COydpdV_sPNm9XgrfEWc-66">
          <mxGeometry relative="1" as="geometry">
            <mxPoint x="2610" y="1010" as="sourcePoint" />
            <mxPoint x="2690" y="930" as="targetPoint" />
          </mxGeometry>
        </mxCell>
        <mxCell id="COydpdV_sPNm9XgrfEWc-68" value="&lt;font style=&quot;font-size: 24px;&quot;&gt;a&lt;/font&gt;" style="edgeLabel;resizable=0;html=1;;align=center;verticalAlign=middle;" connectable="0" vertex="1" parent="COydpdV_sPNm9XgrfEWc-67">
          <mxGeometry relative="1" as="geometry" />
        </mxCell>
        <mxCell id="COydpdV_sPNm9XgrfEWc-69" value="&lt;font style=&quot;font-size: 24px;&quot;&gt;C*&lt;/font&gt;" style="ellipse;whiteSpace=wrap;html=1;aspect=fixed;" vertex="1" parent="1">
          <mxGeometry x="2680" y="1560" width="80" height="80" as="geometry" />
        </mxCell>
        <mxCell id="COydpdV_sPNm9XgrfEWc-70" value="" style="endArrow=classic;html=1;rounded=0;fontSize=24;exitX=1;exitY=0.5;exitDx=0;exitDy=0;entryX=0;entryY=0.5;entryDx=0;entryDy=0;" edge="1" parent="1" source="COydpdV_sPNm9XgrfEWc-65" target="COydpdV_sPNm9XgrfEWc-69">
          <mxGeometry relative="1" as="geometry">
            <mxPoint x="2610" y="1010" as="sourcePoint" />
            <mxPoint x="2691" y="1090" as="targetPoint" />
          </mxGeometry>
        </mxCell>
        <mxCell id="COydpdV_sPNm9XgrfEWc-71" value="&lt;font style=&quot;font-size: 24px;&quot;&gt;b&lt;/font&gt;" style="edgeLabel;resizable=0;html=1;;align=center;verticalAlign=middle;" connectable="0" vertex="1" parent="COydpdV_sPNm9XgrfEWc-70">
          <mxGeometry relative="1" as="geometry" />
        </mxCell>
        <mxCell id="COydpdV_sPNm9XgrfEWc-73" value="" style="endArrow=classic;html=1;rounded=0;fontSize=24;exitX=0;exitY=0;exitDx=0;exitDy=0;entryX=1;entryY=0;entryDx=0;entryDy=0;" edge="1" parent="1" source="COydpdV_sPNm9XgrfEWc-66" target="COydpdV_sPNm9XgrfEWc-66">
          <mxGeometry relative="1" as="geometry">
            <mxPoint x="2610" y="1530" as="sourcePoint" />
            <mxPoint x="2690" y="1450" as="targetPoint" />
            <Array as="points">
              <mxPoint x="2720" y="1360" />
            </Array>
          </mxGeometry>
        </mxCell>
        <mxCell id="COydpdV_sPNm9XgrfEWc-74" value="&lt;font style=&quot;font-size: 24px;&quot;&gt;a&lt;/font&gt;&lt;div&gt;&lt;font style=&quot;font-size: 24px;&quot;&gt;b&lt;/font&gt;&lt;/div&gt;" style="edgeLabel;resizable=0;html=1;;align=center;verticalAlign=middle;" connectable="0" vertex="1" parent="COydpdV_sPNm9XgrfEWc-73">
          <mxGeometry relative="1" as="geometry" />
        </mxCell>
        <mxCell id="COydpdV_sPNm9XgrfEWc-77" value="" style="endArrow=classic;html=1;rounded=0;fontSize=24;exitX=0;exitY=1;exitDx=0;exitDy=0;entryX=1;entryY=1;entryDx=0;entryDy=0;" edge="1" parent="1" source="COydpdV_sPNm9XgrfEWc-69" target="COydpdV_sPNm9XgrfEWc-69">
          <mxGeometry relative="1" as="geometry">
            <mxPoint x="2862" y="1198" as="sourcePoint" />
            <mxPoint x="2918" y="1198" as="targetPoint" />
            <Array as="points">
              <mxPoint x="2720" y="1680" />
            </Array>
          </mxGeometry>
        </mxCell>
        <mxCell id="COydpdV_sPNm9XgrfEWc-78" value="&lt;font style=&quot;font-size: 24px;&quot;&gt;b&lt;/font&gt;" style="edgeLabel;resizable=0;html=1;;align=center;verticalAlign=middle;" connectable="0" vertex="1" parent="COydpdV_sPNm9XgrfEWc-77">
          <mxGeometry relative="1" as="geometry" />
        </mxCell>
        <mxCell id="COydpdV_sPNm9XgrfEWc-81" value="" style="endArrow=classic;html=1;rounded=0;fontSize=24;exitX=0.5;exitY=0;exitDx=0;exitDy=0;entryX=0.5;entryY=1;entryDx=0;entryDy=0;" edge="1" parent="1" source="COydpdV_sPNm9XgrfEWc-69" target="COydpdV_sPNm9XgrfEWc-66">
          <mxGeometry relative="1" as="geometry">
            <mxPoint x="2610" y="1530" as="sourcePoint" />
            <mxPoint x="2690" y="1450" as="targetPoint" />
          </mxGeometry>
        </mxCell>
        <mxCell id="COydpdV_sPNm9XgrfEWc-82" value="&lt;font style=&quot;font-size: 24px;&quot;&gt;a&lt;/font&gt;" style="edgeLabel;resizable=0;html=1;;align=center;verticalAlign=middle;" connectable="0" vertex="1" parent="COydpdV_sPNm9XgrfEWc-81">
          <mxGeometry relative="1" as="geometry" />
        </mxCell>
        <mxCell id="COydpdV_sPNm9XgrfEWc-83" value="&lt;font style=&quot;font-size: 24px;&quot;&gt;A&lt;/font&gt;" style="ellipse;whiteSpace=wrap;html=1;aspect=fixed;" vertex="1" parent="1">
          <mxGeometry x="2880" y="1440" width="80" height="80" as="geometry" />
        </mxCell>
        <mxCell id="COydpdV_sPNm9XgrfEWc-84" value="&lt;font style=&quot;font-size: 24px;&quot;&gt;B*&lt;/font&gt;" style="ellipse;whiteSpace=wrap;html=1;aspect=fixed;" vertex="1" parent="1">
          <mxGeometry x="3040" y="1440" width="80" height="80" as="geometry" />
        </mxCell>
        <mxCell id="COydpdV_sPNm9XgrfEWc-85" value="" style="endArrow=classic;html=1;rounded=0;fontSize=24;exitX=1;exitY=0.5;exitDx=0;exitDy=0;entryX=0;entryY=0.5;entryDx=0;entryDy=0;" edge="1" parent="1" source="COydpdV_sPNm9XgrfEWc-83" target="COydpdV_sPNm9XgrfEWc-84">
          <mxGeometry relative="1" as="geometry">
            <mxPoint x="2970" y="970" as="sourcePoint" />
            <mxPoint x="3050" y="890" as="targetPoint" />
          </mxGeometry>
        </mxCell>
        <mxCell id="COydpdV_sPNm9XgrfEWc-86" value="&lt;font style=&quot;font-size: 24px;&quot;&gt;a&lt;/font&gt;" style="edgeLabel;resizable=0;html=1;;align=center;verticalAlign=middle;" connectable="0" vertex="1" parent="COydpdV_sPNm9XgrfEWc-85">
          <mxGeometry relative="1" as="geometry" />
        </mxCell>
        <mxCell id="COydpdV_sPNm9XgrfEWc-90" value="" style="endArrow=classic;html=1;rounded=0;fontSize=24;exitX=0;exitY=0;exitDx=0;exitDy=0;entryX=1;entryY=0;entryDx=0;entryDy=0;" edge="1" parent="1" source="COydpdV_sPNm9XgrfEWc-84" target="COydpdV_sPNm9XgrfEWc-84">
          <mxGeometry relative="1" as="geometry">
            <mxPoint x="2970" y="1490" as="sourcePoint" />
            <mxPoint x="3050" y="1410" as="targetPoint" />
            <Array as="points">
              <mxPoint x="3080" y="1400" />
            </Array>
          </mxGeometry>
        </mxCell>
        <mxCell id="COydpdV_sPNm9XgrfEWc-91" value="&lt;div&gt;&lt;font style=&quot;font-size: 24px;&quot;&gt;b&lt;/font&gt;&lt;/div&gt;" style="edgeLabel;resizable=0;html=1;;align=center;verticalAlign=middle;" connectable="0" vertex="1" parent="COydpdV_sPNm9XgrfEWc-90">
          <mxGeometry relative="1" as="geometry" />
        </mxCell>
        <mxCell id="COydpdV_sPNm9XgrfEWc-96" value="" style="endArrow=classic;html=1;rounded=0;fontSize=24;exitX=0;exitY=0;exitDx=0;exitDy=0;entryX=1;entryY=0;entryDx=0;entryDy=0;" edge="1" parent="1" source="COydpdV_sPNm9XgrfEWc-83" target="COydpdV_sPNm9XgrfEWc-83">
          <mxGeometry relative="1" as="geometry">
            <mxPoint x="2970" y="1490" as="sourcePoint" />
            <mxPoint x="3050" y="1570" as="targetPoint" />
            <Array as="points">
              <mxPoint x="2920" y="1400" />
            </Array>
          </mxGeometry>
        </mxCell>
        <mxCell id="COydpdV_sPNm9XgrfEWc-97" value="&lt;font style=&quot;font-size: 24px;&quot;&gt;b&lt;/font&gt;" style="edgeLabel;resizable=0;html=1;;align=center;verticalAlign=middle;" connectable="0" vertex="1" parent="COydpdV_sPNm9XgrfEWc-96">
          <mxGeometry relative="1" as="geometry" />
        </mxCell>
      </root>
    </mxGraphModel>
  </diagram>
</mxfile>
